<svg xmlns="http://www.w3.org/2000/svg" width="229" height="151" viewBox="0 0 229 151">
  <metadata><?xpacket begin="﻿" id="W5M0MpCehiHzreSzNTczkc9d"?>
<x:xmpmeta xmlns:x="adobe:ns:meta/" x:xmptk="Adobe XMP Core 5.6-c140 79.160451, 2017/05/06-01:08:21        ">
   <rdf:RDF xmlns:rdf="http://www.w3.org/1999/02/22-rdf-syntax-ns#">
      <rdf:Description rdf:about=""/>
   </rdf:RDF>
</x:xmpmeta>
                                                                                                    
                                                                                                    
                                                                                                    
                                                                                                    
                                                                                                    
                                                                                                    
                                                                                                    
                                                                                                    
                                                                                                    
                                                                                                    
                                                                                                    
                                                                                                    
                                                                                                    
                                                                                                    
                                                                                                    
                                                                                                    
                                                                                                    
                                                                                                    
                                                                                                    
                                                                                                    
                           
<?xpacket end="w"?></metadata>
<defs>
    <style>
      .cls-1 {
        fill: #d2d7e2;
        fill-rule: evenodd;
      }
    </style>
  </defs>
  <path id="Forma_1" data-name="Forma 1" class="cls-1" d="M1004.33,306.8h0l-11.489-7.667V273.5a1.5,1.5,0,0,0-1.491-1.5h-62.7a1.5,1.5,0,0,0-1.491,1.5v25.63l-11.49,7.665h0a1.5,1.5,0,0,0-.667,1.25V354.5a1.5,1.5,0,0,0,1.49,1.5h87.02a1.5,1.5,0,0,0,1.49-1.5V308.046A1.507,1.507,0,0,0,1004.33,306.8Zm-77.173,5.246-4.675-2.5h4.675v2.5Zm-9.176-1.5,34.279,18.3-34.279,22.867V310.539ZM960,327.274L998.563,353H921.436Zm7.741,1.564,34.28-18.3v41.166Zm25.1-19.292h4.677l-4.677,2.5v-2.5Zm5.722-3h-5.722v-3.819ZM989.859,275v38.634l-24.947,13.318-4.089-2.728a1.483,1.483,0,0,0-1.647,0l-4.088,2.728-24.95-13.319V275h59.721Zm-62.7,31.546h-5.72l5.72-3.817v3.817ZM960,311.45h11.876a1.5,1.5,0,0,0,0-3H960A10.43,10.43,0,0,1,949.614,298v-0.443a10.385,10.385,0,1,1,20.77,0v1.107a2.248,2.248,0,1,1-4.5,0v-2.1a6.439,6.439,0,1,0-6.439,6.48,6.381,6.381,0,0,0,4.241-1.611,5.221,5.221,0,0,0,9.675-2.767v-1.106a13.367,13.367,0,1,0-26.733,0V298A13.425,13.425,0,0,0,960,311.45Zm-0.55-11.41a3.48,3.48,0,1,1,3.458-3.48A3.473,3.473,0,0,1,959.449,300.04Z" transform="translate(-846 -255)"/>
  <path id="Shape_1_copy" data-name="Shape 1 copy" class="cls-1" d="M1001.06,400.285c-1.813-1.522-3.865-3.249-7.89-3.249s-6.077,1.727-7.887,3.249c-1.608,1.353-2.879,2.422-5.594,2.422s-3.985-1.069-5.593-2.422c-1.81-1.522-3.861-3.249-7.886-3.249s-6.077,1.727-7.886,3.249c-1.609,1.353-2.879,2.422-5.595,2.422s-3.985-1.069-5.593-2.422c-1.81-1.522-3.861-3.249-7.887-3.249s-6.075,1.727-7.885,3.249c-1.607,1.353-2.878,2.422-5.591,2.422s-3.985-1.069-5.594-2.422c-1.809-1.522-3.861-3.249-7.886-3.249s-6.078,1.727-7.888,3.249c-1.61,1.353-2.881,2.422-5.6,2.422s-3.985-1.069-5.593-2.422c-1.81-1.522-3.861-3.249-7.887-3.249s-6.08,1.725-7.891,3.248c-1.61,1.354-2.881,2.423-5.6,2.423s-3.988-1.069-5.6-2.422c-1.811-1.522-3.863-3.249-7.891-3.249a1.649,1.649,0,1,0,0,3.294c2.717,0,3.989,1.069,5.6,2.423,1.811,1.523,3.863,3.248,7.89,3.248s6.081-1.725,7.891-3.248c1.611-1.354,2.882-2.423,5.6-2.423s3.985,1.069,5.594,2.422c1.809,1.523,3.861,3.249,7.886,3.249s6.079-1.726,7.889-3.249c1.609-1.353,2.881-2.422,5.6-2.422s3.985,1.069,5.593,2.422c1.81,1.523,3.861,3.249,7.887,3.249s6.076-1.726,7.884-3.249c1.609-1.353,2.879-2.422,5.592-2.422s3.985,1.069,5.594,2.422c1.809,1.523,3.861,3.249,7.886,3.249s6.077-1.726,7.888-3.249c1.608-1.353,2.878-2.422,5.593-2.422s3.984,1.069,5.593,2.422c1.809,1.523,3.861,3.249,7.886,3.249s6.077-1.726,7.887-3.249c1.609-1.353,2.879-2.422,5.594-2.422s3.985,1.069,5.593,2.422M854.4,333h25.5a6.608,6.608,0,1,0,0-13.216,6.725,6.725,0,0,0-1.016.077,11.339,11.339,0,0,0-21.368-2.929A8.346,8.346,0,1,0,854.4,333Zm25.5-10.549a3.941,3.941,0,1,1,0,7.882H854.4a5.667,5.667,0,1,1,3.1-10.422,1.354,1.354,0,0,0,1.185.135,1.334,1.334,0,0,0,.827-0.854,8.637,8.637,0,0,1,16.857,2.424,1.333,1.333,0,0,0,.626,1.1,1.356,1.356,0,0,0,1.274.086A3.957,3.957,0,0,1,879.907,322.454ZM1023.97,330.5h43.83a7.149,7.149,0,1,0-1.67-14.1,10.459,10.459,0,0,0-13.81-5.757,14.181,14.181,0,0,0-26.86,3.688A8.161,8.161,0,1,0,1023.97,330.5Zm43.83-11.4a4.25,4.25,0,1,1,0,8.5h-43.83a5.256,5.256,0,1,1,2.19-10.036,1.462,1.462,0,0,0,1.38-.094,1.417,1.417,0,0,0,.68-1.2,11.238,11.238,0,0,1,21.93-3.15,1.467,1.467,0,0,0,2.19.782,7.52,7.52,0,0,1,11.41,4.684,1.436,1.436,0,0,0,.8,1.007,1.477,1.477,0,0,0,1.3-.021A4.256,4.256,0,0,1,1067.8,319.1ZM906.7,382.387c1.609-1.354,2.881-2.423,5.6-2.423s3.985,1.069,5.593,2.423c1.81,1.522,3.861,3.248,7.887,3.248s6.076-1.726,7.884-3.248c1.609-1.354,2.879-2.423,5.592-2.423s3.985,1.069,5.594,2.423c1.809,1.522,3.861,3.248,7.886,3.248s6.077-1.726,7.888-3.248c1.608-1.354,2.878-2.423,5.593-2.423s3.984,1.069,5.593,2.423c1.809,1.522,3.861,3.248,7.886,3.248s6.077-1.726,7.887-3.248c1.609-1.354,2.879-2.423,5.594-2.423s3.985,1.069,5.593,2.423c1.807,1.522,3.857,3.248,7.887,3.248s6.07-1.726,7.88-3.248c1.61-1.354,2.88-2.423,5.6-2.423s3.98,1.069,5.59,2.423c1.81,1.522,3.86,3.248,7.88,3.248s6.08-1.726,7.89-3.248c1.61-1.354,2.88-2.423,5.59-2.423a1.649,1.649,0,1,0,0-3.293c-4.02,0-6.07,1.726-7.88,3.248-1.61,1.354-2.88,2.422-5.6,2.422s-3.98-1.068-5.59-2.422c-1.81-1.522-3.86-3.248-7.88-3.248s-6.08,1.726-7.89,3.248c-1.61,1.354-2.88,2.422-5.59,2.422s-3.99-1.068-5.59-2.422c-1.813-1.522-3.865-3.248-7.89-3.248s-6.077,1.726-7.887,3.248c-1.608,1.354-2.879,2.422-5.594,2.422s-3.985-1.068-5.593-2.422c-1.81-1.522-3.861-3.248-7.886-3.248s-6.077,1.726-7.886,3.248c-1.609,1.354-2.879,2.422-5.595,2.422s-3.985-1.068-5.593-2.422c-1.81-1.522-3.861-3.248-7.887-3.248s-6.075,1.726-7.885,3.248c-1.607,1.354-2.878,2.422-5.591,2.422s-3.985-1.068-5.594-2.422c-1.809-1.522-3.861-3.248-7.886-3.248s-6.078,1.726-7.888,3.248M1007.42,267.484h14.51a3.673,3.673,0,1,0,0-7.343,4.043,4.043,0,0,0-.58.043,6.5,6.5,0,0,0-12.16-1.627,4.859,4.859,0,0,0-1.77-.333A4.632,4.632,0,1,0,1007.42,267.484Zm13.76-5.606a1.874,1.874,0,1,1,0,3.733h-13.12a2.695,2.695,0,1,1,0-5.367,3.141,3.141,0,0,1,1.59.431,0.749,0.749,0,0,0,.61.064,0.646,0.646,0,0,0,.42-0.4,4.408,4.408,0,0,1,4.24-2.84,4.3,4.3,0,0,1,4.44,3.988,0.6,0.6,0,0,0,.32.523,0.738,0.738,0,0,0,.65.041A2.222,2.222,0,0,1,1021.18,261.878Z" transform="translate(-846 -255)"/>
</svg>
