<?xml version="1.0" encoding="UTF-8"?>
<svg width="538px" height="139px" viewBox="0 0 538 139" version="1.1" xmlns="http://www.w3.org/2000/svg" xmlns:xlink="http://www.w3.org/1999/xlink">
    <!-- Generator: Sketch 48.2 (47327) - http://www.bohemiancoding.com/sketch -->
    <title>logo_02</title>
    <desc>Created with Sketch.</desc>
    <defs></defs>
    <g id="Page-1" stroke="none" stroke-width="1" fill="none" fill-rule="evenodd">
        <g id="logo_02">
            <g id="Group">
                <path d="M101.3,104.4 L101.3,106.4 C101.3,107.6 99.8,108.3 98.9,107.4 L81,89.5 C80.3,88.8 80.5,87.8 81.3,87.3 C83.5,86 85.5,84.3 87.1,82.3 C87.6,81.6 88.6,81.6 89.2,82.2 L107.7,100.7 C108.6,101.6 108,103.1 106.7,103.1 L102.7,103.1 C101.9,103 101.3,103.6 101.3,104.4 Z M65.3,90.9 C65.3,90 66.1,89.3 67,89.5 C68.4,89.8 69.8,90 71.3,90 C72.4,90 73.6,89.9 74.6,89.7 C75.5,89.5 76.3,90.2 76.3,91.1 L76.3,137.6 C76.3,138.4 75.7,139 74.9,139 L66.7,139 C65.9,139 65.3,138.4 65.3,137.6 L65.3,90.9 Z M39.9,102 L35.7,102 C34.5,102 33.8,100.5 34.7,99.6 L52.9,81.4 C53.5,80.8 54.5,80.9 55,81.6 C56.5,83.7 58.4,85.5 60.6,86.9 C61.4,87.4 61.5,88.4 60.8,89.1 L43.7,106.2 C42.8,107.1 41.3,106.5 41.3,105.2 L41.3,103.4 C41.3,102.6 40.6,102 39.9,102 Z M51.8,60.3 L32.9,41.4 C32,40.5 32.6,39 33.9,39 L39.9,39 C40.7,39 41.3,38.4 41.3,37.6 C41.3,36.4 42.8,35.7 43.7,36.6 L59.2,52.1 C59.8,52.7 59.7,53.7 59.1,54.2 C57.1,55.8 55.4,57.7 54.1,60 C53.5,60.8 52.4,60.9 51.8,60.3 Z M51.3,70 C51.3,71.8 51.6,73.5 52,75.2 C52.2,76.1 51.6,77 50.7,77 L1.7,77 C0.9,77 0.3,76.4 0.3,75.6 L0.3,67.4 C0.3,66.6 0.9,66 1.7,66 L50,66 C50.8,66 51.5,66.7 51.4,67.6 C51.3,68.4 51.3,69.2 51.3,70 Z" id="Shape" fill="#00A0FF"></path>
                <g transform="translate(65.000000, 0.000000)" fill="#0B4084" id="Shape">
                    <path d="M28.3,66 L25.9,66 L12.8,66 C12,66 11.3,65.3 11.3,64.5 L11.3,50.7 L11.3,46 L11.3,1.5 C11.3,0.7 10.6,0 9.8,0 L1.8,0 C1,0 0.3,0.7 0.3,1.5 L0.3,46 L0.3,50.9 L0.3,72.5 C0.3,73.3 1,74 1.8,74 L2.8,74 C3.6,74 4.3,74.7 4.3,75.5 C4.3,76.3 5,77 5.8,77 L25,77 L28.3,77 L72.8,77 C73.6,77 74.3,76.3 74.3,75.5 L74.3,67.5 C74.3,66.7 73.6,66 72.8,66 L28.3,66 Z"></path>
                    <path d="M25.3,59.4 L44.2,40.5 C45.1,39.6 44.5,38 43.2,38 L37.7,38 C36.9,38 36.2,37.3 36.2,36.5 C36.2,35.2 34.6,34.5 33.7,35.5 L17.7,51.5 C17.1,52.1 17.2,53.2 17.9,53.7 C19.9,55.2 21.7,57 23.1,59.1 C23.6,60 24.7,60.1 25.3,59.4 Z"></path>
                    <path d="M57.4,41.3 L64.2,14 C64.5,13 63.5,12.1 62.5,12.4 L36.2,19.8 C35.1,20.1 34.9,21.6 35.9,22.3 C43.8,27 50.3,33.7 54.9,41.7 C55.5,42.7 57.1,42.5 57.4,41.3 Z"></path>
                </g>
                <path d="M71.3,123 C42,123 18.3,99.3 18.3,70 C18.3,40.7 42,17 71.3,17 C100.6,17 124.3,40.7 124.3,70 C124.3,99.3 100.5,123 71.3,123 Z M71.3,28 C48.1,28 29.3,46.8 29.3,70 C29.3,93.2 48.1,112 71.3,112 C94.5,112 113.3,93.2 113.3,70 C113.3,46.8 94.4,28 71.3,28 Z M71.3,83 C64.1,83 58.3,77.2 58.3,70 C58.3,62.8 64.1,57 71.3,57 C78.5,57 84.3,62.8 84.3,70 C84.3,77.2 78.4,83 71.3,83 Z" id="Shape" fill="#00A0FF"></path>
            </g>
            <g id="Group" transform="translate(174.000000, 38.000000)" fill="#0B4084" fill-rule="nonzero">
                <path d="M30.7,71 C32.8,66.7 33.8,61.6 33.8,55.8 L33.8,2 L21.6,2 L21.6,55.3 C21.6,59.3 20.9,62.7 19.6,65.5 C18.2,68.3 16.3,70.7 13.9,72.7 C15.2,74.3 16.6,75.8 18,77.3 C19.4,78.7 20.8,80.3 22.2,81.9 C25.8,78.8 28.6,75.3 30.7,71 Z M3,15.6 C4.6,17 6.3,17.7 8.3,17.7 C10.2,17.7 11.8,17 13.4,15.6 C14.9,14.2 15.7,12.4 15.7,10.1 C15.7,7.9 14.9,6.1 13.4,4.7 C11.9,3.3 10.2,2.5 8.3,2.5 C6.4,2.5 4.6,3.2 3,4.7 C1.4,6.1 0.7,8 0.7,10.1 C0.6,12.3 1.4,14.2 3,15.6 Z" id="Shape"></path>
                <path d="M103.1,1.9 L91.1,1.9 L91.1,27.9 C91.1,30.4 90.7,32.6 89.8,34.7 C89,36.8 87.8,38.6 86.3,40.1 C84.8,41.6 83.1,42.8 81,43.6 C79,44.4 76.7,44.9 74.3,44.9 C70.7,44.7 68,43.7 66.4,41.9 C64.8,40.1 63.8,37.9 63.7,35.3 L63.7,1.9 L51.5,1.9 L51.5,41 C51.7,45.8 53.4,49.7 56.6,52.6 C59.8,55.5 64.3,57 69.8,57 C75.4,57 79.9,55.6 83.3,52.8 C86.7,50 89.4,46.4 91.3,42.1 L92.8,57 L102.9,57 L102.9,1.9 L103.1,1.9 Z" id="Shape"></path>
                <path d="M154,0.5 C152.6,0.5 151,0.9 149.1,1.6 C147.2,2.3 145.2,3.3 143.2,4.6 C141.2,5.9 139.3,7.5 137.4,9.3 C135.5,11.2 134.1,13.3 133,15.6 C132.8,13.2 132.6,11.1 132.4,9.2 C132.2,7.3 132,4.8 131.8,1.8 L121.2,1.8 L121.2,55.6 L133.4,55.6 L133.4,30.6 C133.4,28.2 133.9,26 134.9,24.2 C135.9,22.4 137.2,20.9 138.9,19.6 C140.5,18.4 142.4,17.5 144.6,16.9 C146.8,16.3 149,16 151.4,16 L154,0.5 Z" id="Shape"></path>
                <path d="M165.4,55.8 L177.6,55.8 L177.6,29.8 C177.6,27.4 178,25.1 178.8,23 C179.6,20.9 180.7,19.1 182.2,17.6 C183.7,16.1 185.4,14.9 187.5,14 C189.6,13.1 191.8,12.7 194.3,12.7 C197.8,12.9 200.5,13.9 202.2,15.8 C203.9,17.7 204.8,20 205,22.6 L205,55.9 L217,55.9 L217,16.9 C216.8,12.1 215.1,8.2 211.9,5.2 C208.6,2.2 204.3,0.7 198.8,0.7 C193.5,0.7 189,2.1 185.5,4.9 C182,7.7 179.2,11.4 177.3,15.9 C177.1,13.5 176.9,11.4 176.7,9.5 C176.5,7.6 176.3,5.1 176.1,2.1 L165.5,2.1 L165.5,55.8 L165.4,55.8 Z" id="Shape"></path>
                <path d="M292,40.8 C290.6,42.2 288.7,43.2 286.5,44 C284.3,44.8 282,45.2 279.9,45.2 C276.7,45.2 273.8,44.4 271.3,42.8 C268.8,41.2 266.8,39.1 265.3,36.5 C268.3,35.3 271.7,34 275.3,32.5 C278.9,31 282.6,29.6 286.2,28.1 C289.8,26.7 293.3,25.3 296.6,24 C299.9,22.7 302.9,21.6 305.4,20.6 C303.5,14.6 300.2,9.8 295.6,6.1 C291,2.4 285.7,0.6 279.6,0.6 C275.8,0.6 272.2,1.3 268.8,2.8 C265.4,4.3 262.4,6.3 259.8,8.9 C257.2,11.5 255.2,14.5 253.7,17.9 C252.2,21.3 251.4,25 251.4,28.9 C251.4,32.8 252.2,36.4 253.7,39.9 C255.2,43.3 257.3,46.3 259.8,48.9 C262.4,51.5 265.4,53.5 268.9,55 C272.4,56.5 276.1,57.2 280.1,57.2 C284,57.2 287.8,56.5 291.5,55.2 C295.2,53.9 298.4,52 301,49.6 L292,40.8 Z M284.4,20.2 C282.2,21.1 279.9,22 277.5,23 C275.1,24 272.7,25 270.3,26 C267.9,27 265.6,27.9 263.5,28.7 L263.5,28.2 C263.5,26.2 263.9,24.2 264.8,22.3 C265.6,20.4 266.8,18.7 268.2,17.2 C269.6,15.7 271.4,14.5 273.4,13.7 C275.4,12.8 277.6,12.4 279.9,12.4 C281.8,12.4 283.8,12.8 285.9,13.7 C287.9,14.6 289.4,16 290.5,17.8 C288.5,18.6 286.6,19.3 284.4,20.2 Z" id="Shape"></path>
            </g>
            <path d="M537.6,40 L488.1,40 L488.1,41 C488.1,43.7 489.1,45.9 491.2,47.6 C493.3,49.3 495.8,50.2 498.7,50.2 L515.3,50.2 L485.2,93.6 L537.1,93.6 L537.1,81.7 L508.5,81.7 L537.6,40 Z" id="Shape" fill="#0B4084" fill-rule="nonzero"></path>
        </g>
    </g>
</svg>