<svg xmlns="http://www.w3.org/2000/svg" width="225.22" height="150.344" viewBox="0 0 225.22 150.344">
  <metadata><?xpacket begin="﻿" id="W5M0MpCehiHzreSzNTczkc9d"?>
<x:xmpmeta xmlns:x="adobe:ns:meta/" x:xmptk="Adobe XMP Core 5.6-c138 79.159824, 2016/09/14-01:09:01        ">
   <rdf:RDF xmlns:rdf="http://www.w3.org/1999/02/22-rdf-syntax-ns#">
      <rdf:Description rdf:about=""/>
   </rdf:RDF>
</x:xmpmeta>
                                                                                                    
                                                                                                    
                                                                                                    
                                                                                                    
                                                                                                    
                                                                                                    
                                                                                                    
                                                                                                    
                                                                                                    
                                                                                                    
                                                                                                    
                                                                                                    
                                                                                                    
                                                                                                    
                                                                                                    
                                                                                                    
                                                                                                    
                                                                                                    
                                                                                                    
                                                                                                    
                           
<?xpacket end="w"?></metadata>
<defs>
    <style>
      .cls-1 {
        fill: #d2d7e2;
        fill-rule: evenodd;
      }
    </style>
  </defs>
  <path class="cls-1" d="M925.234,444a1.649,1.649,0,0,1-1.579-1.185l-11.584-39.3a1.655,1.655,0,0,1,1.23-2.086L959.645,391.3a1.652,1.652,0,0,1,.7,0l46.345,10.125a1.651,1.651,0,0,1,1.23,2.086l-11.593,39.3a1.648,1.648,0,1,1-3.16-.939l11.093-37.6L960,394.608l-44.261,9.67,11.081,37.6A1.65,1.65,0,0,1,925.234,444Zm69.513,0c-3.57,0-5.444-1.84-6.948-3.319-1.351-1.328-2.418-2.376-4.644-2.376s-3.29,1.048-4.639,2.375c-1.5,1.48-3.376,3.32-6.945,3.32s-5.442-1.84-6.946-3.32c-1.351-1.327-2.417-2.375-4.642-2.375s-3.289,1.048-4.638,2.375c-1.5,1.48-3.377,3.32-6.945,3.32s-5.44-1.841-6.943-3.32c-1.35-1.327-2.415-2.375-4.638-2.375s-3.29,1.048-4.639,2.375c-1.5,1.48-3.376,3.32-6.945,3.32s-5.441-1.841-6.945-3.32c-1.35-1.327-2.416-2.375-4.639-2.375a1.654,1.654,0,0,1,0-3.308c3.568,0,5.44,1.841,6.945,3.321,1.349,1.327,2.415,2.375,4.639,2.375s3.29-1.048,4.639-2.375c1.5-1.48,3.377-3.321,6.945-3.321s5.44,1.842,6.944,3.321c1.349,1.327,2.415,2.375,4.637,2.375s3.289-1.048,4.639-2.375c1.5-1.48,3.376-3.321,6.944-3.321s5.442,1.841,6.947,3.32c1.35,1.328,2.416,2.376,4.641,2.376s3.29-1.048,4.639-2.375c1.5-1.479,3.377-3.321,6.945-3.321s5.444,1.841,6.949,3.32c1.351,1.328,2.417,2.376,4.643,2.376s3.292-1.048,4.643-2.376c1.51-1.479,3.38-3.32,6.95-3.32a1.654,1.654,0,0,1,0,3.308c-2.23,0-3.29,1.048-4.64,2.376C1000.19,442.157,998.317,444,994.747,444Zm0.707-42.309a1.65,1.65,0,0,1-1.647-1.654V381.518H926.183v18.516a1.648,1.648,0,1,1-3.295,0v-20.17a1.65,1.65,0,0,1,1.647-1.654h70.919a1.651,1.651,0,0,1,1.648,1.654v20.17A1.651,1.651,0,0,1,995.454,401.688Zm-8.037-20.17a1.651,1.651,0,0,1-1.648-1.654V361.348H934.221v18.516a1.648,1.648,0,1,1-3.295,0v-20.17a1.65,1.65,0,0,1,1.647-1.654h54.844a1.65,1.65,0,0,1,1.647,1.654v20.17A1.651,1.651,0,0,1,987.417,381.518Zm-16.571-20.17h-21.7a1.651,1.651,0,0,1-1.647-1.654v-22.04A1.65,1.65,0,0,1,949.144,336h21.7a1.651,1.651,0,0,1,1.648,1.653v22.04A1.651,1.651,0,0,1,970.846,361.348Zm-20.054-3.308H969.2V339.308H950.792V358.04Zm-33.446,59.2a1.654,1.654,0,0,1-.325-3.275l42.647-8.668a1.637,1.637,0,0,1,.654,0l42.648,8.668a1.654,1.654,0,0,1-.66,3.242L960,408.6l-42.32,8.6A1.6,1.6,0,0,1,917.346,417.238ZM960,423.52a1.65,1.65,0,0,1-1.647-1.654V392.915a1.648,1.648,0,1,1,3.3,0v28.951A1.651,1.651,0,0,1,960,423.52Zm10.851-76.648h-21.7a1.654,1.654,0,0,1,0-3.307h21.7A1.654,1.654,0,0,1,970.846,346.872Z" transform="translate(-847 -308.656)"/>
  <path class="cls-1" d="M890.233,459c3.5,0,5.283-1.57,6.856-2.956,1.4-1.233,2.5-2.206,4.865-2.206s3.462,0.973,4.86,2.2c1.572,1.386,3.355,2.957,6.852,2.957s5.282-1.571,6.855-2.957c1.4-1.232,2.5-2.2,4.862-2.2s3.463,0.973,4.86,2.2C931.815,457.43,933.6,459,937.1,459s5.279-1.571,6.851-2.957c1.4-1.232,2.5-2.2,4.859-2.2s3.462,0.973,4.86,2.2c1.572,1.386,3.355,2.957,6.853,2.957s5.28-1.571,6.852-2.957c1.4-1.232,2.5-2.2,4.86-2.2s3.462,0.973,4.86,2.2c1.572,1.386,3.355,2.957,6.852,2.957s5.28-1.571,6.853-2.957c1.4-1.232,2.5-2.2,4.86-2.2s3.463,0.973,4.865,2.2c1.57,1.386,3.35,2.957,6.85,2.957s5.28-1.571,6.85-2.957c1.4-1.232,2.5-2.2,4.86-2.2s3.46,0.973,4.86,2.2c1.57,1.386,3.35,2.957,6.85,2.957s5.28-1.571,6.85-2.957c1.4-1.232,2.5-2.2,4.86-2.2a1.5,1.5,0,1,0,0-3c-3.5,0-5.28,1.571-6.85,2.957-1.4,1.232-2.5,2.2-4.86,2.2s-3.46-.973-4.86-2.2c-1.57-1.386-3.36-2.957-6.85-2.957s-5.28,1.571-6.85,2.957c-1.4,1.232-2.5,2.2-4.86,2.2s-3.46-.973-4.86-2.2c-1.57-1.386-3.357-2.957-6.855-2.957s-5.28,1.571-6.852,2.957c-1.4,1.232-2.5,2.2-4.861,2.2s-3.462-.973-4.86-2.2c-1.572-1.386-3.354-2.957-6.852-2.957s-5.28,1.571-6.852,2.957c-1.4,1.232-2.5,2.2-4.86,2.2s-3.463-.973-4.861-2.2c-1.572-1.386-3.355-2.957-6.852-2.957s-5.279,1.571-6.851,2.957c-1.4,1.232-2.5,2.2-4.859,2.2s-3.462-.973-4.86-2.2c-1.572-1.386-3.354-2.957-6.852-2.957s-5.281,1.571-6.854,2.957c-1.4,1.232-2.5,2.2-4.863,2.2s-3.462-.973-4.86-2.2c-1.572-1.386-3.354-2.957-6.852-2.957s-5.283,1.57-6.856,2.956c-1.4,1.233-2.5,2.206-4.865,2.206s-3.465-.973-4.864-2.2c-1.574-1.386-3.357-2.957-6.857-2.957a1.5,1.5,0,1,0,0,3c2.361,0,3.466.973,4.865,2.206C884.951,457.431,886.734,459,890.233,459Zm-33.827-79.742h28.55a7.428,7.428,0,1,0,0-14.856,7.546,7.546,0,0,0-1.137.086A12.678,12.678,0,0,0,859.9,361.2,9.373,9.373,0,1,0,856.406,379.259Zm28.55-11.859a4.431,4.431,0,1,1,0,8.861h-28.55a6.37,6.37,0,1,1,3.465-11.716,1.512,1.512,0,0,0,1.327.152,1.5,1.5,0,0,0,.925-0.96,9.663,9.663,0,0,1,18.871,2.725,1.5,1.5,0,0,0,.7,1.242,1.517,1.517,0,0,0,1.426.1A4.4,4.4,0,0,1,884.956,367.4Zm134.734-29.709h45.1a7.392,7.392,0,1,0-1.72-14.583,10.74,10.74,0,0,0-14.21-5.953,14.568,14.568,0,0,0-27.63,3.814A8.434,8.434,0,1,0,1019.69,337.691Zm45.1-11.786a4.394,4.394,0,1,1,0,8.788h-45.1a5.434,5.434,0,1,1,2.25-10.376,1.5,1.5,0,0,0,2.13-1.339,11.552,11.552,0,0,1,22.56-3.257,1.5,1.5,0,0,0,.92.96,1.511,1.511,0,0,0,1.33-.152,7.724,7.724,0,0,1,11.74,4.843,1.507,1.507,0,0,0,2.16,1.02A4.377,4.377,0,0,1,1064.79,325.9Z" transform="translate(-847 -308.656)"/>
</svg>
