<svg xmlns="http://www.w3.org/2000/svg" width="229" height="151" viewBox="0 0 229 151">
  <metadata><?xpacket begin="﻿" id="W5M0MpCehiHzreSzNTczkc9d"?>
<x:xmpmeta xmlns:x="adobe:ns:meta/" x:xmptk="Adobe XMP Core 5.6-c140 79.160451, 2017/05/06-01:08:21        ">
   <rdf:RDF xmlns:rdf="http://www.w3.org/1999/02/22-rdf-syntax-ns#">
      <rdf:Description rdf:about=""/>
   </rdf:RDF>
</x:xmpmeta>
                                                                                                    
                                                                                                    
                                                                                                    
                                                                                                    
                                                                                                    
                                                                                                    
                                                                                                    
                                                                                                    
                                                                                                    
                                                                                                    
                                                                                                    
                                                                                                    
                                                                                                    
                                                                                                    
                                                                                                    
                                                                                                    
                                                                                                    
                                                                                                    
                                                                                                    
                                                                                                    
                           
<?xpacket end="w"?></metadata>
<defs>
    <style>
      .cls-1 {
        fill: #d2d7e2;
        fill-rule: evenodd;
      }
    </style>
  </defs>
  <path class="cls-1" d="M1016.06,379.285c-1.81-1.522-3.86-3.249-7.89-3.249s-6.08,1.727-7.89,3.249c-1.605,1.353-2.876,2.422-5.591,2.422s-3.985-1.069-5.593-2.422c-1.81-1.522-3.861-3.249-7.886-3.249s-6.077,1.727-7.886,3.249c-1.609,1.353-2.879,2.422-5.595,2.422s-3.985-1.069-5.593-2.422c-1.81-1.522-3.861-3.249-7.887-3.249s-6.075,1.727-7.885,3.249c-1.607,1.353-2.878,2.422-5.591,2.422s-3.985-1.069-5.594-2.422c-1.809-1.522-3.861-3.249-7.886-3.249s-6.078,1.727-7.888,3.249c-1.61,1.353-2.881,2.422-5.6,2.422s-3.985-1.069-5.593-2.422c-1.81-1.522-3.861-3.249-7.887-3.249s-6.08,1.725-7.891,3.248c-1.61,1.354-2.881,2.423-5.6,2.423s-3.988-1.069-5.6-2.422c-1.811-1.522-3.863-3.249-7.891-3.249a1.649,1.649,0,1,0,0,3.294c2.717,0,3.989,1.069,5.6,2.423,1.811,1.523,3.863,3.248,7.89,3.248s6.081-1.725,7.891-3.248c1.611-1.354,2.882-2.423,5.6-2.423s3.985,1.069,5.594,2.422c1.809,1.523,3.861,3.249,7.886,3.249s6.079-1.726,7.889-3.249c1.609-1.353,2.881-2.422,5.6-2.422s3.985,1.069,5.593,2.422c1.81,1.523,3.861,3.249,7.887,3.249s6.076-1.726,7.884-3.249c1.609-1.353,2.879-2.422,5.592-2.422s3.985,1.069,5.594,2.422c1.809,1.523,3.861,3.249,7.886,3.249s6.077-1.726,7.888-3.249c1.608-1.353,2.878-2.422,5.593-2.422s3.984,1.069,5.593,2.422c1.809,1.523,3.861,3.249,7.886,3.249s6.081-1.726,7.891-3.249c1.6-1.353,2.88-2.422,5.59-2.422s3.98,1.069,5.59,2.422M869.4,312h25.5a6.608,6.608,0,1,0,0-13.216,6.725,6.725,0,0,0-1.016.077,11.339,11.339,0,0,0-21.368-2.929A8.346,8.346,0,1,0,869.4,312Zm25.5-10.549a3.941,3.941,0,1,1,0,7.882H869.4a5.667,5.667,0,1,1,3.1-10.422,1.354,1.354,0,0,0,1.185.135,1.334,1.334,0,0,0,.827-0.854,8.637,8.637,0,0,1,16.857,2.424,1.333,1.333,0,0,0,.626,1.1,1.356,1.356,0,0,0,1.274.086A3.957,3.957,0,0,1,894.907,301.454ZM1038.97,309.5h43.83a7.149,7.149,0,1,0-1.67-14.1,10.459,10.459,0,0,0-13.81-5.757,14.181,14.181,0,0,0-26.86,3.688A8.161,8.161,0,1,0,1038.97,309.5Zm43.83-11.4a4.25,4.25,0,1,1,0,8.5h-43.83a5.256,5.256,0,1,1,2.19-10.036,1.462,1.462,0,0,0,1.38-.094,1.417,1.417,0,0,0,.68-1.2,11.238,11.238,0,0,1,21.93-3.15,1.467,1.467,0,0,0,2.19.782,7.52,7.52,0,0,1,11.41,4.684,1.436,1.436,0,0,0,.8,1.007,1.477,1.477,0,0,0,1.3-.021A4.256,4.256,0,0,1,1082.8,298.1ZM921.7,361.387c1.609-1.354,2.881-2.423,5.6-2.423s3.985,1.069,5.593,2.423c1.81,1.522,3.861,3.248,7.887,3.248s6.076-1.726,7.884-3.248c1.609-1.354,2.879-2.423,5.592-2.423s3.985,1.069,5.594,2.423c1.809,1.522,3.861,3.248,7.886,3.248s6.077-1.726,7.888-3.248c1.608-1.354,2.878-2.423,5.593-2.423s3.984,1.069,5.593,2.423c1.809,1.522,3.861,3.248,7.886,3.248s6.081-1.726,7.891-3.248c1.6-1.354,2.88-2.423,5.59-2.423s3.98,1.069,5.59,2.423c1.81,1.522,3.86,3.248,7.89,3.248s6.07-1.726,7.88-3.248c1.61-1.354,2.88-2.423,5.6-2.423s3.98,1.069,5.59,2.423c1.81,1.522,3.86,3.248,7.88,3.248s6.08-1.726,7.89-3.248c1.61-1.354,2.88-2.423,5.59-2.423a1.649,1.649,0,1,0,0-3.293c-4.02,0-6.07,1.726-7.88,3.248-1.61,1.354-2.88,2.422-5.6,2.422s-3.98-1.068-5.59-2.422c-1.81-1.522-3.86-3.248-7.88-3.248s-6.08,1.726-7.89,3.248c-1.61,1.354-2.88,2.422-5.59,2.422s-3.99-1.068-5.59-2.422c-1.81-1.522-3.86-3.248-7.89-3.248s-6.08,1.726-7.89,3.248c-1.605,1.354-2.876,2.422-5.591,2.422s-3.985-1.068-5.593-2.422c-1.81-1.522-3.861-3.248-7.886-3.248s-6.077,1.726-7.886,3.248c-1.609,1.354-2.879,2.422-5.595,2.422s-3.985-1.068-5.593-2.422c-1.81-1.522-3.861-3.248-7.887-3.248s-6.075,1.726-7.885,3.248c-1.607,1.354-2.878,2.422-5.591,2.422s-3.985-1.068-5.594-2.422c-1.809-1.522-3.861-3.248-7.886-3.248s-6.078,1.726-7.888,3.248M1022.42,246.484h14.51a3.673,3.673,0,1,0,0-7.343,4.043,4.043,0,0,0-.58.043,6.5,6.5,0,0,0-12.16-1.627,4.859,4.859,0,0,0-1.77-.333A4.632,4.632,0,1,0,1022.42,246.484Zm13.76-5.606a1.874,1.874,0,1,1,0,3.733h-13.12a2.695,2.695,0,1,1,0-5.367,3.141,3.141,0,0,1,1.59.431,0.749,0.749,0,0,0,.61.064,0.646,0.646,0,0,0,.42-0.4,4.408,4.408,0,0,1,4.24-2.84,4.3,4.3,0,0,1,4.44,3.988,0.6,0.6,0,0,0,.32.523,0.738,0.738,0,0,0,.65.041A2.222,2.222,0,0,1,1036.18,240.878Zm-11.78,33.579h-11.25a17.117,17.117,0,0,0-17.157,17.037v23.9a7.6,7.6,0,0,1-.279,2.035c-7.659-2.312-11.7-8.744-12.964-11.118a7.448,7.448,0,0,0,4.165-6.668,7.369,7.369,0,0,0-1.406-4.334,10.737,10.737,0,0,0,2.849-7.32v-6.68a1.786,1.786,0,0,0-3.572,0v6.68A7.224,7.224,0,0,1,982.791,293a7.512,7.512,0,0,0-9.45,2.3H965.2a7.512,7.512,0,0,0-9.45-2.3,7.227,7.227,0,0,1-1.994-5.007V268.576a15.479,15.479,0,0,1,15.5-15.422h0.033a15.479,15.479,0,0,1,15.5,15.422v2.517a1.786,1.786,0,0,0,3.572,0v-2.517A19.047,19.047,0,0,0,969.285,249.6h-0.033a19.047,19.047,0,0,0-19.074,18.977V287.99a10.742,10.742,0,0,0,2.849,7.32,7.407,7.407,0,0,0,2.759,11c-1.266,2.377-5.307,8.806-12.963,11.118a7.563,7.563,0,0,1-.279-2.035v-23.9a17.116,17.116,0,0,0-17.154-17.037,1.778,1.778,0,1,0,0,3.555,13.547,13.547,0,0,1,13.581,13.482v23.9a11.246,11.246,0,0,0,11.269,11.2h2.536a8.109,8.109,0,0,0,8.126-8.073V314.27h2.136v9.885a8.254,8.254,0,0,1-8.275,8.215h-4.149a13.713,13.713,0,0,1-13.746-13.648v-27.23a10.188,10.188,0,0,0-10.209-10.144h-6.106a1.8,1.8,0,0,0-.337.033H918.25a3.747,3.747,0,0,1-2.657-1.091,3.7,3.7,0,0,1-1.082-2.278h1.77a1.778,1.778,0,1,0,0-3.555H914.14a3.212,3.212,0,0,0-3.218,3.2,7.216,7.216,0,0,0,2.147,5.149,7.305,7.305,0,0,0,5.181,2.13h2.92a6.914,6.914,0,0,1,6.931,6.881V323.65a19.65,19.65,0,0,0,19.676,19.544H956.4a14.685,14.685,0,0,0,12.874-7.6,14.688,14.688,0,0,0,12.875,7.6,1.778,1.778,0,1,0,0-3.555,11.061,11.061,0,0,1-11.088-11.008V314.269h0.871v9.886a11.681,11.681,0,0,0,3.115,7.944,1.769,1.769,0,0,0,.228.238,11.85,11.85,0,0,0,8.5,3.587h4.148a17.279,17.279,0,0,0,17.317-17.2V291.491a6.6,6.6,0,0,1,3.71-5.915q-0.135.186-.27,0.378c-0.02.038-.05,0.077-0.07,0.116-0.06.09-.12,0.182-0.18,0.275l-0.09.139c-0.05.09-.1,0.181-0.15,0.274-0.03.045-.05,0.09-0.08,0.136-0.06.11-.12,0.221-0.17,0.334a0.3,0.3,0,0,0-.04.081c-0.07.139-.13,0.28-0.2,0.423-0.01.04-.03,0.08-0.04,0.12-0.05.105-.09,0.21-0.13,0.316l-0.06.158c-0.03.1-.07,0.2-0.1,0.295-0.02.054-.03,0.108-0.05,0.162l-0.09.328a0.638,0.638,0,0,0-.04.129c-0.04.152-.07,0.306-0.11,0.461,0,0.031-.01.063-0.01,0.094-0.03.125-.05,0.252-0.07,0.378l-0.03.164c-0.01.106-.03,0.214-0.04,0.322a1.02,1.02,0,0,1-.02.173c-0.01.112-.01,0.224-0.02,0.337a0.808,0.808,0,0,0-.01.155c-0.01.163-.01,0.327-0.01,0.492V323.65a16.069,16.069,0,0,1-16.108,15.99,1.777,1.777,0,1,0,0,3.554,19.648,19.648,0,0,0,19.678-19.543V291.816a6.914,6.914,0,0,1,6.93-6.881h2.92a7.31,7.31,0,0,0,7.33-7.279A3.223,3.223,0,0,0,1024.4,274.457Zm-30.467,46.134a7.7,7.7,0,0,1-5.637,2.445H985.76a4.541,4.541,0,0,1-4.553-4.518v-7.861A25.492,25.492,0,0,0,993.933,320.591Zm-14.512-24.838a3.891,3.891,0,1,1-3.921,3.891A3.91,3.91,0,0,1,979.421,295.753ZM957.33,311.544v6.974a4.541,4.541,0,0,1-4.553,4.518H950.24a7.7,7.7,0,0,1-5.636-2.445,25.5,25.5,0,0,0,12.726-9.935v0.888Zm-2.137-11.9a3.922,3.922,0,1,1,3.922,3.891A3.911,3.911,0,0,1,955.193,299.644Zm1.2,40h-8.618a16.064,16.064,0,0,1-16.1-15.989V291.816c0-.165,0-0.329-0.012-0.492,0-.052-0.007-0.1-0.01-0.155-0.007-.112-0.016-0.225-0.026-0.337l-0.018-.173c-0.012-.109-0.026-0.216-0.042-0.323-0.008-.054-0.015-0.109-0.024-0.163-0.02-.126-0.043-0.252-0.067-0.376-0.007-.032-0.012-0.064-0.018-0.1-0.033-.155-0.069-0.308-0.108-0.461-0.011-.043-0.023-0.086-0.035-0.128-0.03-.111-0.061-0.22-0.094-0.329-0.017-.054-0.034-0.107-0.052-0.161-0.032-.1-0.065-0.2-0.1-0.3-0.018-.053-0.037-0.105-0.057-0.157-0.04-.107-0.082-0.212-0.126-0.316-0.016-.041-0.032-0.081-0.049-0.121-0.061-.142-0.125-0.284-0.193-0.423-0.013-.027-0.027-0.054-0.041-0.081-0.055-.112-0.113-0.224-0.172-0.334-0.025-.046-0.051-0.091-0.076-0.136-0.052-.092-0.1-0.183-0.159-0.274-0.027-.046-0.056-0.093-0.084-0.139-0.058-.093-0.118-0.184-0.178-0.275-0.026-.038-0.051-0.078-0.077-0.116-0.088-.128-0.177-0.254-0.271-0.377a6.594,6.594,0,0,1,3.714,5.915v27.23a17.28,17.28,0,0,0,17.318,17.2h4.148a11.847,11.847,0,0,0,8.508-3.591,1.73,1.73,0,0,0,.222-0.231,11.682,11.682,0,0,0,3.118-7.948V314.27h0.872v14.362h0A11.06,11.06,0,0,1,956.394,339.639Zm4.508-28.924v-3.841a7.467,7.467,0,0,0,5.707-7.23,7.657,7.657,0,0,0-.042-0.791h5.4a7.387,7.387,0,0,0-.042.791,7.468,7.468,0,0,0,5.707,7.23v3.841H960.9Zm62.048-30.426a3.762,3.762,0,0,1-2.66,1.092h-1.97a1.782,1.782,0,0,0-.34-0.033h-6.1a10.188,10.188,0,0,0-10.21,10.144v27.23a13.715,13.715,0,0,1-13.748,13.648h-4.148a8.255,8.255,0,0,1-8.276-8.215v-9.886h2.137v4.249a8.109,8.109,0,0,0,8.125,8.073H988.3a11.246,11.246,0,0,0,11.27-11.2v-23.9a13.549,13.549,0,0,1,13.584-13.482h10.88A3.748,3.748,0,0,1,1022.95,280.289Zm-63.3-17.174a1.777,1.777,0,1,1-1.786,1.777A1.781,1.781,0,0,1,959.654,263.115Zm2.956,9.992a1.777,1.777,0,1,1-1.786,1.777A1.781,1.781,0,0,1,962.61,273.107Zm6.658-5.569a1.778,1.778,0,1,1-1.786,1.778A1.782,1.782,0,0,1,969.268,267.538Zm7.226,5.569a1.777,1.777,0,1,1-1.787,1.777A1.781,1.781,0,0,1,976.494,273.107Zm2.927-9.992a1.777,1.777,0,1,1-1.787,1.777A1.781,1.781,0,0,1,979.421,263.115Zm0,34.757a1.778,1.778,0,1,1-1.787,1.778A1.782,1.782,0,0,1,979.421,297.872Zm-20.305,0a1.778,1.778,0,1,1-1.786,1.778A1.782,1.782,0,0,1,959.116,297.872Z" transform="translate(-861 -234)"/>
</svg>
