<svg xmlns="http://www.w3.org/2000/svg" width="20" height="20" viewBox="0 0 20 20">
  <metadata><?xpacket begin="﻿" id="W5M0MpCehiHzreSzNTczkc9d"?>
<x:xmpmeta xmlns:x="adobe:ns:meta/" x:xmptk="Adobe XMP Core 5.6-c140 79.160451, 2017/05/06-01:08:21        ">
   <rdf:RDF xmlns:rdf="http://www.w3.org/1999/02/22-rdf-syntax-ns#">
      <rdf:Description rdf:about=""/>
   </rdf:RDF>
</x:xmpmeta>
                                                                                                    
                                                                                                    
                                                                                                    
                                                                                                    
                                                                                                    
                                                                                                    
                                                                                                    
                                                                                                    
                                                                                                    
                                                                                                    
                                                                                                    
                                                                                                    
                                                                                                    
                                                                                                    
                                                                                                    
                                                                                                    
                                                                                                    
                                                                                                    
                                                                                                    
                                                                                                    
                           
<?xpacket end="w"?></metadata>
<defs>
    <style>
      .cls-1 {
        fill: #ff262f;
        fill-rule: evenodd;
      }
    </style>
  </defs>
  <path id="Forma_1" data-name="Forma 1" class="cls-1" d="M642.02,305.277c-0.165.041-.333,0.078-0.5,0.109a0.812,0.812,0,0,0-.317,1.458,0.8,0.8,0,0,0,.61.134c0.2-.037.4-0.08,0.6-0.13A0.809,0.809,0,0,0,642.02,305.277Zm5.945-10.856a0.8,0.8,0,0,0,1.016.514,0.811,0.811,0,0,0,.511-1.023c-0.064-.193-0.134-0.387-0.21-0.576a0.8,0.8,0,0,0-1.045-.452,0.812,0.812,0,0,0-.447,1.053C647.853,294.1,647.912,294.259,647.965,294.421Zm-3.333,9.7c-0.142.095-.288,0.186-0.435,0.271a0.814,0.814,0,0,0-.295,1.107,0.8,0.8,0,0,0,1.1.3c0.175-.1.35-0.21,0.519-0.322a0.814,0.814,0,0,0,.227-1.122A0.8,0.8,0,0,0,644.632,304.12Zm5.36-7.437a0.8,0.8,0,1,0-1.607.064c0.007,0.171.008,0.344,0,.515a0.81,0.81,0,0,0,.342.68,0.786,0.786,0,0,0,.444.147A0.806,0.806,0,0,0,650,297.3C650,297.094,650,296.887,649.992,296.683Zm-2.158,5.307a0.8,0.8,0,0,0-1.126.162c-0.1.137-.209,0.272-0.319,0.4a0.814,0.814,0,0,0,.091,1.142c0.019,0.016.038,0.031,0.059,0.046a0.8,0.8,0,0,0,1.074-.138c0.131-.155.259-0.317,0.381-0.48A0.813,0.813,0,0,0,647.834,301.99Zm1.182-2.928a0.8,0.8,0,0,0-1.008.531c-0.051.163-.107,0.327-0.168,0.487a0.815,0.815,0,0,0,.288.95,0.834,0.834,0,0,0,.177.1,0.8,0.8,0,0,0,1.038-.468c0.072-.191.139-0.386,0.2-0.58A0.811,0.811,0,0,0,649.016,299.062Zm-10.5,6.331a8.246,8.246,0,0,1-2.062-.66l-0.023-.013c-0.154-.073-0.308-0.151-0.457-0.233h0a8.475,8.475,0,0,1-2.827-12.28,8.362,8.362,0,0,1,2.062-2.066l0.029-.02a8.351,8.351,0,0,1,9.418-.076l-0.628.914c-0.174.254-.067,0.44,0.239,0.412l2.728-.246a0.452,0.452,0,0,0,.407-0.592l-0.732-2.659c-0.083-.3-0.293-0.334-0.467-0.08l-0.63.917a9.87,9.87,0,0,0-7.276-1.559q-0.386.068-.761,0.164h0l-0.029.008a9.911,9.911,0,0,0-5.5,3.711c-0.012.014-.024,0.028-0.035,0.043-0.045.061-.09,0.125-0.135,0.188-0.072.1-.144,0.21-0.212,0.317-0.009.012-.015,0.025-0.023,0.038a10.038,10.038,0,0,0-1.584,5.89v0.02c0.009,0.2.025,0.409,0.047,0.612,0,0.013,0,.026.006,0.039q0.033,0.306.086,0.612a10.017,10.017,0,0,0,2.8,5.42l0.01,0.011,0,0a10.1,10.1,0,0,0,1.281,1.079,9.866,9.866,0,0,0,3.986,1.68A0.81,0.81,0,0,0,638.512,305.393Zm0.994-14.863a0.654,0.654,0,0,0-.651.656v6.528l5.927,3.086a0.644,0.644,0,0,0,.3.073,0.65,0.65,0,0,0,.578-0.354,0.657,0.657,0,0,0-.279-0.883l-5.224-2.72v-5.73A0.653,0.653,0,0,0,639.506,290.53Z" transform="translate(-630 -287)"/>
</svg>
