<svg xmlns="http://www.w3.org/2000/svg" width="16.03" height="23" viewBox="0 0 16.03 23">
  <metadata><?xpacket begin="﻿" id="W5M0MpCehiHzreSzNTczkc9d"?>
<x:xmpmeta xmlns:x="adobe:ns:meta/" x:xmptk="Adobe XMP Core 5.6-c140 79.160451, 2017/05/06-01:08:21        ">
   <rdf:RDF xmlns:rdf="http://www.w3.org/1999/02/22-rdf-syntax-ns#">
      <rdf:Description rdf:about=""/>
   </rdf:RDF>
</x:xmpmeta>
                                                                                                    
                                                                                                    
                                                                                                    
                                                                                                    
                                                                                                    
                                                                                                    
                                                                                                    
                                                                                                    
                                                                                                    
                                                                                                    
                                                                                                    
                                                                                                    
                                                                                                    
                                                                                                    
                                                                                                    
                                                                                                    
                                                                                                    
                                                                                                    
                                                                                                    
                                                                                                    
                           
<?xpacket end="w"?></metadata>
<defs>
    <style>
      .cls-1 {
        fill: #00a0ff;
        fill-rule: evenodd;
      }
    </style>
  </defs>
  <path id="alerts.svg" class="cls-1" d="M1130.82,188.925a1.224,1.224,0,0,1-1.07.63h-4.27a2.48,2.48,0,0,1-4.96,0h-4.27a1.224,1.224,0,0,1-1.07-.63,1.316,1.316,0,0,1-.03-1.276l1.07-2.106v-5.2a7.049,7.049,0,0,1,4.9-6.786v-2.6a1.882,1.882,0,1,1,3.76,0v2.6a7.049,7.049,0,0,1,4.9,6.786v5.2l1.07,2.106A1.316,1.316,0,0,1,1130.82,188.925Zm-7.82,2.038a1.518,1.518,0,0,0,1.48-1.408h-2.96A1.518,1.518,0,0,0,1123,190.963Zm0.89-20a0.891,0.891,0,1,0-1.78,0v2.379a6.631,6.631,0,0,1,1.78,0V170.96Zm4.89,9.382a5.785,5.785,0,1,0-11.56,0v4.772h11.56v-4.772Zm1.19,7.794-1.01-1.985h-11.92l-1.01,1.985a0.275,0.275,0,0,0,0,.256,0.25,0.25,0,0,0,.22.125h13.5a0.25,0.25,0,0,0,.22-0.125A0.275,0.275,0,0,0,1129.97,188.136ZM1123,175.7a0.519,0.519,0,0,1,0,1.037,3.538,3.538,0,0,0-3.46,3.607,0.507,0.507,0,0,1-.5.519,0.514,0.514,0,0,1-.5-0.519A4.56,4.56,0,0,1,1123,175.7Z" transform="translate(-1115 -169)"/>
</svg>
