<svg xmlns="http://www.w3.org/2000/svg" width="20" height="20" viewBox="0 0 20 20">
  <metadata><?xpacket begin="﻿" id="W5M0MpCehiHzreSzNTczkc9d"?>
<x:xmpmeta xmlns:x="adobe:ns:meta/" x:xmptk="Adobe XMP Core 5.6-c140 79.160451, 2017/05/06-01:08:21        ">
   <rdf:RDF xmlns:rdf="http://www.w3.org/1999/02/22-rdf-syntax-ns#">
      <rdf:Description rdf:about=""/>
   </rdf:RDF>
</x:xmpmeta>
                                                                                                    
                                                                                                    
                                                                                                    
                                                                                                    
                                                                                                    
                                                                                                    
                                                                                                    
                                                                                                    
                                                                                                    
                                                                                                    
                                                                                                    
                                                                                                    
                                                                                                    
                                                                                                    
                                                                                                    
                                                                                                    
                                                                                                    
                                                                                                    
                                                                                                    
                                                                                                    
                           
<?xpacket end="w"?></metadata>
<defs>
    <style>
      .cls-1 {
        fill: #177fc2;
        fill-rule: evenodd;
      }
    </style>
  </defs>
  <path class="cls-1" d="M645.012,394a0.648,0.648,0,0,0-.709-0.139l-6.393,2.7a0.647,0.647,0,0,0-.345.345l-2.7,6.392a0.647,0.647,0,0,0,.6.9,0.63,0.63,0,0,0,.251-0.051l6.393-2.7a0.654,0.654,0,0,0,.345-0.345l2.7-6.392A0.646,0.646,0,0,0,645.012,394Zm-3.651,6.356-4.682,1.976,1.977-4.681,4.682-1.977ZM640,389a10,10,0,1,0,10,10A10.011,10.011,0,0,0,640,389Zm0,18.7a8.7,8.7,0,1,1,8.705-8.7A8.715,8.715,0,0,1,640,407.705Zm2.28-7.349-3.66-3.66a0.647,0.647,0,0,0-.916.915l3.66,3.661A0.648,0.648,0,0,0,642.28,400.356Z" transform="translate(-630 -389)"/>
</svg>
