<svg xmlns="http://www.w3.org/2000/svg" width="19" height="19" viewBox="0 0 19 19">
  <metadata><?xpacket begin="﻿" id="W5M0MpCehiHzreSzNTczkc9d"?>
<x:xmpmeta xmlns:x="adobe:ns:meta/" x:xmptk="Adobe XMP Core 5.6-c140 79.160451, 2017/05/06-01:08:21        ">
   <rdf:RDF xmlns:rdf="http://www.w3.org/1999/02/22-rdf-syntax-ns#">
      <rdf:Description rdf:about=""/>
   </rdf:RDF>
</x:xmpmeta>
                                                                                                    
                                                                                                    
                                                                                                    
                                                                                                    
                                                                                                    
                                                                                                    
                                                                                                    
                                                                                                    
                                                                                                    
                                                                                                    
                                                                                                    
                                                                                                    
                                                                                                    
                                                                                                    
                                                                                                    
                                                                                                    
                                                                                                    
                                                                                                    
                                                                                                    
                                                                                                    
                           
<?xpacket end="w"?></metadata>
<defs>
    <style>
      .cls-1 {
        fill: #1aa9ff;
        fill-rule: evenodd;
      }
    </style>
  </defs>
  <path id="Forma_1_copy" data-name="Forma 1 copy" class="cls-1" d="M1012.5,171a9.51,9.51,0,0,0-9.5,9.5,9.388,9.388,0,0,0,1.48,5.092l-1.44,3.593a0.608,0.608,0,0,0,.13.642,0.619,0.619,0,0,0,.42.173,0.557,0.557,0,0,0,.22-0.043l3.6-1.439A9.369,9.369,0,0,0,1012.5,190,9.5,9.5,0,0,0,1012.5,171Zm0.19,17.619a8.186,8.186,0,0,1-4.68-1.449c-0.1-.07-0.75.626-0.89,0.626-0.08,0,.4-0.718.33-0.689l-2.79,1.233,1.23-2.788a0.584,0.584,0,0,0-.06-0.558,8.183,8.183,0,0,1-1.45-4.685A8.31,8.31,0,1,1,1012.69,188.619Z" transform="translate(-1003 -171)"/>
</svg>
