<svg xmlns="http://www.w3.org/2000/svg" width="22" height="23" viewBox="0 0 22 23">
  <metadata><?xpacket begin="﻿" id="W5M0MpCehiHzreSzNTczkc9d"?>
<x:xmpmeta xmlns:x="adobe:ns:meta/" x:xmptk="Adobe XMP Core 5.6-c138 79.159824, 2016/09/14-01:09:01        ">
   <rdf:RDF xmlns:rdf="http://www.w3.org/1999/02/22-rdf-syntax-ns#">
      <rdf:Description rdf:about=""/>
   </rdf:RDF>
</x:xmpmeta>
                                                                                                    
                                                                                                    
                                                                                                    
                                                                                                    
                                                                                                    
                                                                                                    
                                                                                                    
                                                                                                    
                                                                                                    
                                                                                                    
                                                                                                    
                                                                                                    
                                                                                                    
                                                                                                    
                                                                                                    
                                                                                                    
                                                                                                    
                                                                                                    
                                                                                                    
                                                                                                    
                           
<?xpacket end="w"?></metadata>
<defs>
    <style>
      .cls-1 {
        fill: #00a0ff;
        fill-rule: evenodd;
      }
    </style>
  </defs>
  <path class="cls-1" d="M288.967,267.45a0.63,0.63,0,0,0,0,.917l3.56,3.438A0.69,0.69,0,0,0,293,272a0.668,0.668,0,0,0,.472-0.192l3.561-3.438a0.632,0.632,0,0,0,0-.917,0.685,0.685,0,0,0-.95,0l-2.412,2.328v-11.13a0.671,0.671,0,0,0-1.342,0v11.13l-2.412-2.328A0.685,0.685,0,0,0,288.967,267.45Zm15.008,5.31-2.337-8.163a0.663,0.663,0,0,0-.368-0.417l-0.065-.029a0.693,0.693,0,0,0-.278-0.058h-4.212a0.649,0.649,0,1,0,0,1.3h3.759l1.974,6.9h-5.221a0.659,0.659,0,0,0-.672.649v0.585a1.584,1.584,0,0,1-1.611,1.556h-4.1a1.584,1.584,0,0,1-1.612-1.556v-0.585a0.658,0.658,0,0,0-.671-0.649h-5.018l1.985-6.919h3.759a0.648,0.648,0,1,0,0-1.3h-4.217a0.709,0.709,0,0,0-.278.057l-0.065.029a0.653,0.653,0,0,0-.368.418l-2.337,8.163a0.682,0.682,0,0,0-.025.173v3.4A4.768,4.768,0,0,0,286.843,281h12.313A4.768,4.768,0,0,0,304,276.323v-3.39A0.487,0.487,0,0,0,303.975,272.76Zm-1.318,3.563a3.447,3.447,0,0,1-3.5,3.38H286.843a3.447,3.447,0,0,1-3.5-3.38v-2.732h4.56a2.91,2.91,0,0,0,2.954,2.785h4.1a2.91,2.91,0,0,0,2.954-2.785h4.759v2.732h-0.01Z" transform="translate(-282 -258)"/>
</svg>
