<?xml version="1.0" encoding="UTF-8"?>
<svg width="30px" height="30px" viewBox="0 0 30 30" version="1.1" xmlns="http://www.w3.org/2000/svg" xmlns:xlink="http://www.w3.org/1999/xlink">
    <!-- Generator: Sketch 48.2 (47327) - http://www.bohemiancoding.com/sketch -->
    <title>File</title>
    <desc>Created with Sketch.</desc>
    <defs></defs>
    <g id="Page-1" stroke="none" stroke-width="1" fill="none" fill-rule="evenodd">
        <g id="File">
            <path d="M25,6.74000666 L18.8492785,1 L5,1 L5,13.045166 L25,13.045166 L25,6.74000666 Z M5,-1.11022302e-16 L19.2434082,-7.28329918e-18 L26,6.30541992 L26,13.045166 L4,13.045166 L4,1 C4,0.44771525 4.44771525,-1.27874841e-16 5,-1.11022302e-16 Z" id="Rectangle" fill="#71CAFF" fill-rule="nonzero"></path>
            <path d="" id="Combined-Shape" fill="#979797" fill-rule="nonzero"></path>
            <path d="M25,6 L26,7 L20,7 C19.4477153,7 19,6.55228475 19,6 L19,0 L20,1 L20,6 L25,6 Z M26,7 L20,7 C19.4477153,7 19,6.55228475 19,6 L19,0 L20,1 L20,6 L25,6 L26,7 Z" id="Rectangle-2" fill="#71CAFF" fill-rule="nonzero"></path>
            <path d="M1,14 L1,25 L29,25 L29,14 L1,14 Z M2.16929998,13 L27.8632627,13 L25.1435068,10.6074016 L25.9025137,9.9563191 L29.5484204,13.1636623 C29.8204162,13.3423828 30,13.6502194 30,14 L30,25 C30,25.5522847 29.5522847,26 29,26 L1,26 C0.44771525,26 6.76353751e-17,25.5522847 0,25 L0,14 C-4.40660457e-17,13.6401734 0.190047536,13.3247348 0.475241965,13.1485849 L4.17531921,9.98423244 L4.93432617,10.6353149 L2.16929998,13 Z" id="Combined-Shape" fill="#71CAFF" fill-rule="nonzero"></path>
            <path d="M5,25.9494629 L5,29.0300293 L25,29.0300293 L25,25.9494629 L5,25.9494629 Z M26,25.1171875 L26,29.0300293 C26,29.582314 25.5522847,30.0300293 25,30.0300293 L5,30.0300293 C4.44771525,30.0300293 4,29.582314 4,29.0300293 L4,25 L26,25.1171875 Z" id="Rectangle-Copy" fill="#71CAFF" fill-rule="nonzero"></path>
            <path d="M7.75195312,23 L7.75195312,15.8808594 L12.2978516,15.8808594 L12.2978516,16.9013672 L8.83105469,16.9013672 L8.83105469,19.0009766 L11.7900391,19.0009766 L11.7900391,19.9580078 L8.83105469,19.9580078 L8.83105469,23 L7.75195312,23 Z M13.0595703,23 L13.0595703,17.9316406 L14.0800781,17.9316406 L14.0800781,23 L13.0595703,23 Z M13.0595703,16.9013672 L13.0595703,15.8808594 L14.0800781,15.8808594 L14.0800781,16.9013672 L13.0595703,16.9013672 Z M15.4277344,21.7695312 L15.4277344,15.8808594 L16.4482422,15.8808594 L16.4482422,21.6914062 C16.4482422,21.9225272 16.575194,22.0380859 16.8291016,22.0380859 L17.1806641,22.0380859 L17.1806641,23 L16.7265625,23 C16.3554669,23 16.0494804,22.9072275 15.8085938,22.7216797 C15.5546862,22.5328767 15.4277344,22.215497 15.4277344,21.7695312 Z M21.9365234,20.8515625 L18.7773438,20.8515625 C18.7773438,21.2584656 18.8945301,21.5677073 19.1289062,21.7792969 C19.3470063,21.9941417 19.6334618,22.1015625 19.9882812,22.1015625 C20.4016948,22.1015625 20.7711572,21.9371761 21.0966797,21.6083984 L21.8339844,22.2382812 C21.3164037,22.7916694 20.7076858,23.0651042 20.0078125,23.0585938 C19.7408841,23.0585938 19.48047,23.0195316 19.2265625,22.9414062 C19.0996087,22.8990883 18.9759121,22.8421228 18.8554688,22.7705078 C18.728515,22.7086585 18.6097011,22.6321619 18.4990234,22.5410156 C18.2841786,22.3522126 18.1100267,22.0885434 17.9765625,21.75 C17.8300774,21.4244775 17.7568359,21.0013047 17.7568359,20.4804688 C17.7568359,19.9791642 17.8203119,19.5625017 17.9472656,19.2304688 C18.0742194,18.8919254 18.2369782,18.625001 18.4355469,18.4296875 C18.6373708,18.2311188 18.8636055,18.0878911 19.1142578,18 C19.3616549,17.9121089 19.6057931,17.8681641 19.8466797,17.8681641 C20.4261097,17.8746745 20.9160136,18.0651023 21.3164062,18.4394531 C21.7233093,18.8203144 21.930013,19.3443977 21.9365234,20.0117188 L21.9365234,20.8515625 Z M18.7773438,20.0117188 L20.9160156,20.0117188 C20.9029947,19.6178366 20.7972015,19.319988 20.5986328,19.1181641 C20.4033193,18.9261058 20.1526708,18.8300781 19.8466797,18.8300781 C19.5406886,18.8300781 19.29004,18.9261058 19.0947266,19.1181641 C18.9026683,19.319988 18.7968751,19.6178366 18.7773438,20.0117188 Z" fill="#71CAFF"></path>
        </g>
    </g>
</svg>