<?xml version="1.0" encoding="UTF-8"?>
<svg width="30px" height="30px" viewBox="0 0 30 30" version="1.1" xmlns="http://www.w3.org/2000/svg" xmlns:xlink="http://www.w3.org/1999/xlink">
    <!-- Generator: Sketch 48.2 (47327) - http://www.bohemiancoding.com/sketch -->
    <title>IMG</title>
    <desc>Created with Sketch.</desc>
    <defs></defs>
    <g id="Page-1" stroke="none" stroke-width="1" fill="none" fill-rule="evenodd">
        <g id="IMG">
            <path d="M25,6.74000666 L18.8492785,1 L5,1 L5,13.045166 L25,13.045166 L25,6.74000666 Z M5,-1.11022302e-16 L19.2434082,-7.28329918e-18 L26,6.30541992 L26,13.045166 L4,13.045166 L4,1 C4,0.44771525 4.44771525,-1.27874841e-16 5,-1.11022302e-16 Z" id="Rectangle" fill="#71CAFF" fill-rule="nonzero"></path>
            <path d="" id="Combined-Shape" fill="#979797" fill-rule="nonzero"></path>
            <path d="M25,6 L26,7 L20,7 C19.4477153,7 19,6.55228475 19,6 L19,0 L20,1 L20,6 L25,6 Z M26,7 L20,7 C19.4477153,7 19,6.55228475 19,6 L19,0 L20,1 L20,6 L25,6 L26,7 Z" id="Rectangle-2" fill="#71CAFF" fill-rule="nonzero"></path>
            <path d="M1,14 L1,25 L29,25 L29,14 L1,14 Z M2.16929998,13 L27.8632627,13 L25.1435068,10.6074016 L25.9025137,9.9563191 L29.5484204,13.1636623 C29.8204162,13.3423828 30,13.6502194 30,14 L30,25 C30,25.5522847 29.5522847,26 29,26 L1,26 C0.44771525,26 6.76353751e-17,25.5522847 0,25 L0,14 C-4.40660457e-17,13.6401734 0.190047536,13.3247348 0.475241965,13.1485849 L4.17531921,9.98423244 L4.93432617,10.6353149 L2.16929998,13 Z" id="Combined-Shape" fill="#71CAFF" fill-rule="nonzero"></path>
            <path d="M5,25.9494629 L5,29.0300293 L25,29.0300293 L25,25.9494629 L5,25.9494629 Z M26,25.1171875 L26,29.0300293 C26,29.582314 25.5522847,30.0300293 25,30.0300293 L5,30.0300293 C4.44771525,30.0300293 4,29.582314 4,29.0300293 L4,25 L26,25.1171875 Z" id="Rectangle-Copy" fill="#71CAFF" fill-rule="nonzero"></path>
            <path d="M7.75195312,23 L7.75195312,15.8808594 L8.83105469,15.8808594 L8.83105469,23 L7.75195312,23 Z M10.3300781,23 L10.3300781,15.8808594 L11.3457031,15.8808594 L13.3867188,20.5195312 L15.3886719,15.8808594 L16.4091797,15.8808594 L16.4091797,23 L15.3300781,23 L15.3300781,18.5615234 L15.3056641,18.5615234 L13.8164062,21.9794922 L12.9179688,21.9794922 L11.4287109,18.5615234 L11.4091797,18.5615234 L11.4091797,23 L10.3300781,23 Z M20.2177734,20.0996094 L20.2177734,19.0791016 L22.7470703,19.0791016 L22.7470703,20.5292969 C22.7340494,21.2421911 22.4899112,21.8395158 22.0146484,22.3212891 C21.5361304,22.7998071 20.9339229,23.0455729 20.2080078,23.0585938 C19.6481092,23.0455729 19.1809915,22.9088555 18.8066406,22.6484375 C18.4257793,22.3977852 18.1490894,22.1080746 17.9765625,21.7792969 C17.9244789,21.6718745 17.8772789,21.5693364 17.8349609,21.4716797 C17.7958982,21.3707677 17.7633465,21.2438159 17.7373047,21.0908203 C17.6884763,20.8043605 17.6640625,20.2542358 17.6640625,19.4404297 C17.6640625,18.6136026 17.6884763,18.0602228 17.7373047,17.7802734 C17.7893883,17.5003241 17.8691401,17.2740894 17.9765625,17.1015625 C18.1490894,16.7727848 18.4257793,16.479819 18.8066406,16.2226562 C19.1809915,15.9622383 19.6481092,15.8287761 20.2080078,15.8222656 C20.8948602,15.8287761 21.4547504,16.0322246 21.8876953,16.4326172 C22.3206402,16.836265 22.594075,17.3359345 22.7080078,17.9316406 L21.5654297,17.9316406 C21.4775386,17.6451809 21.318035,17.4010427 21.0869141,17.1992188 C20.8460274,17.0071605 20.5530616,16.9078776 20.2080078,16.9013672 C19.9541003,16.9078776 19.7360035,16.9583329 19.5537109,17.0527344 C19.3681631,17.1503911 19.218425,17.2724602 19.1044922,17.4189453 C18.9645175,17.5719409 18.871745,17.768879 18.8261719,18.0097656 C18.7740883,18.2636731 18.7480469,18.7405564 18.7480469,19.4404297 C18.7480469,20.140303 18.7740883,20.6139311 18.8261719,20.8613281 C18.871745,21.1087252 18.9645175,21.3089185 19.1044922,21.4619141 C19.218425,21.6083992 19.3681631,21.7272131 19.5537109,21.8183594 C19.7360035,21.9257818 19.9541003,21.9794922 20.2080078,21.9794922 C20.6279318,21.9794922 20.974608,21.8362645 21.2480469,21.5498047 C21.5214857,21.2763658 21.6614583,20.9166689 21.6679688,20.4707031 L21.6679688,20.0996094 L20.2177734,20.0996094 Z" fill="#71CAFF"></path>
        </g>
    </g>
</svg>