<svg xmlns="http://www.w3.org/2000/svg" width="35" height="23" viewBox="0 0 35 23">
  <metadata><?xpacket begin="﻿" id="W5M0MpCehiHzreSzNTczkc9d"?>
<x:xmpmeta xmlns:x="adobe:ns:meta/" x:xmptk="Adobe XMP Core 5.6-c140 79.160451, 2017/05/06-01:08:21        ">
   <rdf:RDF xmlns:rdf="http://www.w3.org/1999/02/22-rdf-syntax-ns#">
      <rdf:Description rdf:about=""/>
   </rdf:RDF>
</x:xmpmeta>
                                                                                                    
                                                                                                    
                                                                                                    
                                                                                                    
                                                                                                    
                                                                                                    
                                                                                                    
                                                                                                    
                                                                                                    
                                                                                                    
                                                                                                    
                                                                                                    
                                                                                                    
                                                                                                    
                                                                                                    
                                                                                                    
                                                                                                    
                                                                                                    
                                                                                                    
                                                                                                    
                           
<?xpacket end="w"?></metadata>
<defs>
    <style>
      .cls-1 {
        fill: #00a0ff;
        fill-rule: evenodd;
      }
    </style>
  </defs>
  <path class="cls-1" d="M324.771,140H294.229A2.241,2.241,0,0,0,292,142.247v18.5A2.241,2.241,0,0,0,294.229,163h30.542A2.241,2.241,0,0,0,327,160.752v-18.5A2.241,2.241,0,0,0,324.771,140Zm0.743,20.752a0.748,0.748,0,0,1-.743.75H294.229a0.748,0.748,0,0,1-.743-0.75v-18.5a0.747,0.747,0,0,1,.743-0.749h30.542a0.747,0.747,0,0,1,.743.749v18.5Zm-4.659-14.179H312.88a0.749,0.749,0,0,0,0,1.5h7.975A0.749,0.749,0,0,0,320.855,146.573Zm0,4.178H312.88a0.749,0.749,0,0,0,0,1.5h7.975A0.749,0.749,0,0,0,320.855,150.751Zm0,4.178H312.88a0.749,0.749,0,0,0,0,1.5h7.975A0.749,0.749,0,0,0,320.855,154.929Zm-15.132-1.069a1.767,1.767,0,0,1-1.743-1.427,4.3,4.3,0,0,0,1.211-1.595c0.022,0,.044,0,0.066,0a0.668,0.668,0,0,0,.528-0.26,4.59,4.59,0,0,0,.913-2.955,3.938,3.938,0,0,0-3.576-4.088c-0.053,0-.1,0-0.138,0h0a3.373,3.373,0,0,0-1.474-.285,3.67,3.67,0,0,0-2.813,1.532,5.245,5.245,0,0,0-1.017,3.344,5.488,5.488,0,0,0,.05.589,5.406,5.406,0,0,0,.431,1.508,0.669,0.669,0,0,0,.568.393,0.62,0.62,0,0,0,.2-0.018,4.4,4.4,0,0,0,1.313,1.825,1.771,1.771,0,0,1-1.744,1.431,2.742,2.742,0,0,0-2.637,2.747v2.73a0.672,0.672,0,0,0,.669.674h11.166a0.672,0.672,0,0,0,.669-0.674v-2.73A2.742,2.742,0,0,0,305.723,153.86Zm-6.661-5.266-0.009-.062a3.964,3.964,0,0,1-.037-0.443,3.884,3.884,0,0,1,.74-2.48,2.365,2.365,0,0,1,1.8-1,1.879,1.879,0,0,1,1.007.224,0.592,0.592,0,0,0,.318.07l0.224-.01a2.649,2.649,0,0,1,2.262,2.783,3.688,3.688,0,0,1-.021.517,3.982,3.982,0,0,0-1.882-1.691,0.665,0.665,0,0,0-.525,0,0.678,0.678,0,0,0-.362.385,2.836,2.836,0,0,1-.186.408,1.014,1.014,0,0,1-.938.49c-0.08,0-.161,0-0.24,0a3.565,3.565,0,0,0-1.139.225A3.611,3.611,0,0,0,299.062,148.594Zm0.932,0.978a2.664,2.664,0,0,1,.545-0.3,2.344,2.344,0,0,1,.863-0.14,2.347,2.347,0,0,0,2.086-1.069,2.823,2.823,0,0,1,.82,1.039c-0.208,1.514-1.142,2.665-2.2,2.665A2.519,2.519,0,0,1,299.994,149.572Zm1.469,3.466a2.772,2.772,0,0,0,.643.076,2.841,2.841,0,0,0,.647-0.075,3.1,3.1,0,0,0,1.262,1.67,2.023,2.023,0,0,1-3.813,0A3.1,3.1,0,0,0,301.463,153.038Zm-4.269,5.625v-2.056a1.4,1.4,0,0,1,1.39-1.4c0.015,0,.259-0.014.364-0.028a3.357,3.357,0,0,0,6.321,0c0.1,0.014.348,0.028,0.364,0.028a1.4,1.4,0,0,1,1.389,1.4v2.056h-9.828Z" transform="translate(-292 -140)"/>
</svg>
