<svg xmlns="http://www.w3.org/2000/svg" width="28" height="24" viewBox="0 0 28 24">
  <metadata><?xpacket begin="﻿" id="W5M0MpCehiHzreSzNTczkc9d"?>
<x:xmpmeta xmlns:x="adobe:ns:meta/" x:xmptk="Adobe XMP Core 5.6-c140 79.160451, 2017/05/06-01:08:21        ">
   <rdf:RDF xmlns:rdf="http://www.w3.org/1999/02/22-rdf-syntax-ns#">
      <rdf:Description rdf:about=""/>
   </rdf:RDF>
</x:xmpmeta>
                                                                                                    
                                                                                                    
                                                                                                    
                                                                                                    
                                                                                                    
                                                                                                    
                                                                                                    
                                                                                                    
                                                                                                    
                                                                                                    
                                                                                                    
                                                                                                    
                                                                                                    
                                                                                                    
                                                                                                    
                                                                                                    
                                                                                                    
                                                                                                    
                                                                                                    
                                                                                                    
                           
<?xpacket end="w"?></metadata>
<defs>
    <style>
      .cls-1 {
        fill: #00a0ff;
        fill-rule: evenodd;
      }
    </style>
  </defs>
  <path class="cls-1" d="M486.817,153.633a3.193,3.193,0,0,0-2.5-1.389,0.473,0.473,0,0,0-.065,0A2.5,2.5,0,0,1,481.8,150a4.723,4.723,0,0,0,1-1.032,6.588,6.588,0,0,0,1.139-3.013,0.576,0.576,0,0,0,.108-0.173,5.173,5.173,0,0,0,.385-1.977A4.6,4.6,0,0,0,480.078,139a3.968,3.968,0,0,0-1.792.43,3.135,3.135,0,0,0-.622.117c-2.006.595-3.14,3.084-2.528,5.548a5.675,5.675,0,0,0,.233.725,0.592,0.592,0,0,0,.1.168A5.935,5.935,0,0,0,477.605,150a2.5,2.5,0,0,1-2.454,2.243,0.549,0.549,0,0,0-.058,0A3.257,3.257,0,0,0,472,155.531v3.543a0.591,0.591,0,0,0,.583.6h10.306a0.6,0.6,0,0,0,0-1.2h-9.722v-2.945a2.07,2.07,0,0,1,2.041-2.094,0.563,0.563,0,0,0,.058,0,3.53,3.53,0,0,0,1.195-.249l2.762,4.09a0.575,0.575,0,0,0,.959,0l2.761-4.09a3.53,3.53,0,0,0,1.195.249l0.058,0a2.034,2.034,0,0,1,1.669.887,0.577,0.577,0,0,0,.477.253,0.567,0.567,0,0,0,.336-0.11A0.608,0.608,0,0,0,486.817,153.633ZM477.988,140.7a2.008,2.008,0,0,1,.481-0.08,0.573,0.573,0,0,0,.245-0.068,2.842,2.842,0,0,1,1.363-.352,3.4,3.4,0,0,1,3.183,3.488,2.04,2.04,0,0,0-1.259-.434H478.95a0.678,0.678,0,0,1-.417-0.142,0.718,0.718,0,0,1-.231-0.307,0.681,0.681,0,0,0-.677-0.438,0.689,0.689,0,0,0-.62.525,4.159,4.159,0,0,1-.8,1.6C475.9,142.75,476.66,141.09,477.988,140.7Zm-1.368,5.068a5.353,5.353,0,0,0,1.21-1.7l0,0a1.818,1.818,0,0,0,1.115.38H482a0.926,0.926,0,0,1,.833.537,5.654,5.654,0,0,1-.974,3.272,2.709,2.709,0,0,1-2.158,1.269,2.646,2.646,0,0,1-2.036-1.109A5.3,5.3,0,0,1,476.62,145.765Zm3.082,10.118-2.232-3.305a3.754,3.754,0,0,0,1.22-2.015,3.3,3.3,0,0,0,2.025,0,3.757,3.757,0,0,0,1.219,2.013Zm17.2-.313a0.549,0.549,0,0,0-.058,0,2.5,2.5,0,0,1-2.454-2.245,5.3,5.3,0,0,0,1.692-2.308,0.589,0.589,0,0,0,.385.4,0.571,0.571,0,0,0,.172.027,0.581,0.581,0,0,0,.461-0.231,6.429,6.429,0,0,0-.193-7.721,4.266,4.266,0,0,0-3.227-1.622c-0.064,0-.224,0-0.25,0a4.269,4.269,0,0,0-1.961-.4,4.722,4.722,0,0,0-3.63,2.018,7.473,7.473,0,0,0-1.269,5.272,7.368,7.368,0,0,0,.568,2.025,0.577,0.577,0,0,0,1.028.063c0.047-.079.107-0.177,0.174-0.273a5.964,5.964,0,0,0,1.162,2.114,4.508,4.508,0,0,0,.693.64,2.5,2.5,0,0,1-2.454,2.243,0.544,0.544,0,0,0-.057,0,3.258,3.258,0,0,0-3.093,3.289V162.4a0.591,0.591,0,0,0,.583.6h14.238a0.591,0.591,0,0,0,.583-0.6v-3.542A3.258,3.258,0,0,0,496.907,155.57Zm-9.042-6.274a6.778,6.778,0,0,1-.135-0.709,6.054,6.054,0,0,1-.054-0.662,5.888,5.888,0,0,1,1.094-3.713,3.587,3.587,0,0,1,2.741-1.551,3.269,3.269,0,0,1,1.554.353,0.6,0.6,0,0,0,.281.062l0.319-.015a3.125,3.125,0,0,1,2.363,1.206,4.986,4.986,0,0,1,1.1,3.049,5.319,5.319,0,0,1-.25,1.808c-0.055-.15-0.116-0.3-0.184-0.445A5.27,5.27,0,0,0,494.027,146a0.573,0.573,0,0,0-.459,0,0.6,0.6,0,0,0-.315.341,4.414,4.414,0,0,1-.279.623,1.727,1.727,0,0,1-1.606.869c-0.1,0-.207,0-0.31,0a4.485,4.485,0,0,0-1.464.294A5.135,5.135,0,0,0,487.865,149.3Zm1.435,0.325a3.409,3.409,0,0,1,.7-0.372,3.343,3.343,0,0,1,1.092-.219c0.078,0,.156,0,0.233,0a2.88,2.88,0,0,0,2.664-1.481c0.032-.058.063-0.118,0.093-0.178a4.1,4.1,0,0,1,1.328,1.386,0.452,0.452,0,0,0-.006.053,5.426,5.426,0,0,1-1.075,2.935,2.651,2.651,0,0,1-2.037,1.108C490.922,152.853,489.7,151.514,489.3,149.621Zm1.986,4.268a3.261,3.261,0,0,0,2.024,0,3.739,3.739,0,0,0,1.74,2.385,2.838,2.838,0,0,1-5.5,0A3.742,3.742,0,0,0,491.286,153.889Zm7.547,7.914H485.762v-2.944a2.071,2.071,0,0,1,2.042-2.095l0.058,0a3.483,3.483,0,0,0,.589-0.068,3.993,3.993,0,0,0,7.694,0,3.46,3.46,0,0,0,.589.068,0.549,0.549,0,0,0,.058,0,2.071,2.071,0,0,1,2.041,2.095V161.8Z" transform="translate(-472 -139)"/>
</svg>
