<svg xmlns="http://www.w3.org/2000/svg" width="16" height="22" viewBox="0 0 16 22">
  <metadata><?xpacket begin="﻿" id="W5M0MpCehiHzreSzNTczkc9d"?>
<x:xmpmeta xmlns:x="adobe:ns:meta/" x:xmptk="Adobe XMP Core 5.6-c140 79.160451, 2017/05/06-01:08:21        ">
   <rdf:RDF xmlns:rdf="http://www.w3.org/1999/02/22-rdf-syntax-ns#">
      <rdf:Description rdf:about=""/>
   </rdf:RDF>
</x:xmpmeta>
                                                                                                    
                                                                                                    
                                                                                                    
                                                                                                    
                                                                                                    
                                                                                                    
                                                                                                    
                                                                                                    
                                                                                                    
                                                                                                    
                                                                                                    
                                                                                                    
                                                                                                    
                                                                                                    
                                                                                                    
                                                                                                    
                                                                                                    
                                                                                                    
                                                                                                    
                                                                                                    
                           
<?xpacket end="w"?></metadata>
<defs>
    <style>
      .cls-1 {
        fill: #00a0ff;
        fill-rule: evenodd;
      }
    </style>
  </defs>
  <path id="map.svg" class="cls-1" d="M906.137,185.072l2.812,6.128a0.555,0.555,0,0,1-.1.611,0.515,0.515,0,0,1-.376.163,0.508,0.508,0,0,1-.214-0.047l-3.523-1.615-3.522,1.615a0.508,0.508,0,0,1-.428,0l-3.523-1.615-3.522,1.615a0.515,0.515,0,0,1-.591-0.116,0.555,0.555,0,0,1-.1-0.611l2.812-6.128a0.534,0.534,0,0,1,.261-0.263l1.408-.645-2.424-4.186a0.307,0.307,0,0,1-.017-0.031,7.031,7.031,0,0,1-.726-3.153,6.9,6.9,0,0,1,1.93-4.767,6.485,6.485,0,0,1,9.364-.059,7,7,0,0,1,1.249,7.98c0,0.01-.01.02-0.016,0.03l-2.424,4.186,1.4,0.641A0.532,0.532,0,0,1,906.137,185.072Zm-0.158-5.634a5.89,5.89,0,0,0-1.06-6.7,5.459,5.459,0,0,0-4-1.655,5.7,5.7,0,0,0-5.5,5.715,5.813,5.813,0,0,0,.6,2.638l4.527,7.818a0.519,0.519,0,0,0,.9,0Zm-2.054,5.664-1.569,2.709a1.556,1.556,0,0,1-2.712,0l-1.569-2.709-1.344.616-2.122,4.624,2.44-1.119a0.508,0.508,0,0,1,.428,0L901,190.838l3.522-1.615a0.508,0.508,0,0,1,.428,0l2.44,1.119-2.121-4.624Zm-5.327-8.267a2.4,2.4,0,1,1,2.4,2.475A2.441,2.441,0,0,1,898.6,176.835Zm3.751,0a1.35,1.35,0,1,0-1.349,1.39A1.372,1.372,0,0,0,902.349,176.835Z" transform="translate(-893 -170)"/>
</svg>
