<svg xmlns="http://www.w3.org/2000/svg" width="18" height="23" viewBox="0 0 18 23">
  <metadata><?xpacket begin="﻿" id="W5M0MpCehiHzreSzNTczkc9d"?>
<x:xmpmeta xmlns:x="adobe:ns:meta/" x:xmptk="Adobe XMP Core 5.6-c140 79.160451, 2017/05/06-01:08:21        ">
   <rdf:RDF xmlns:rdf="http://www.w3.org/1999/02/22-rdf-syntax-ns#">
      <rdf:Description rdf:about=""/>
   </rdf:RDF>
</x:xmpmeta>
                                                                                                    
                                                                                                    
                                                                                                    
                                                                                                    
                                                                                                    
                                                                                                    
                                                                                                    
                                                                                                    
                                                                                                    
                                                                                                    
                                                                                                    
                                                                                                    
                                                                                                    
                                                                                                    
                                                                                                    
                                                                                                    
                                                                                                    
                                                                                                    
                                                                                                    
                                                                                                    
                           
<?xpacket end="w"?></metadata>
<defs>
    <style>
      .cls-1 {
        fill: #00a0ff;
        fill-rule: evenodd;
      }
    </style>
  </defs>
  <path id="Crew_Members.svg" data-name="Crew Members.svg" class="cls-1" d="M579.47,182.233a2.206,2.206,0,0,1-3.145-2,5.459,5.459,0,0,0,1.229-1.285,8.08,8.08,0,0,0,1.331-3.671,0.559,0.559,0,0,0,.134-0.2,6.359,6.359,0,0,0,.444-2.358c0-3.153-2.25-5.719-5.016-5.719a4.453,4.453,0,0,0-2.088.524,3.45,3.45,0,0,0-.738.14,4.242,4.242,0,0,0-2.6,2.508,6.558,6.558,0,0,0-.292,4.087,6.75,6.75,0,0,0,.27.866,0.565,0.565,0,0,0,.125.192,7.134,7.134,0,0,0,2.554,4.911,2.207,2.207,0,0,1-3.145,2.006,3.776,3.776,0,0,0-3.53,3.86l1,2.343a0.548,0.548,0,0,0,.532.563l3.676,1h7.584l3.675-1a0.549,0.549,0,0,0,.533-0.563l1-2.343A3.777,3.777,0,0,0,579.47,182.233Zm-8.521-10.593a5.308,5.308,0,0,1-1.2,2.279c-0.535-2.329.431-4.641,2.173-5.173a2.458,2.458,0,0,1,.61-0.105,0.517,0.517,0,0,0,.223-0.064,3.467,3.467,0,0,1,1.7-.451c2.179,0,3.952,2.06,3.952,4.593,0,0.076,0,.152-0.006.227a2.261,2.261,0,0,0-1.658-.735h-3.628a0.948,0.948,0,0,1-.593-0.208,1.037,1.037,0,0,1-.328-0.45m-0.732,6.928a6.832,6.832,0,0,1-1.291-3.426,6.39,6.39,0,0,0,1.549-2.294,2.086,2.086,0,0,0,.165.145,1.967,1.967,0,0,0,1.23.431h3.628a1.264,1.264,0,0,1,1.154.791s0,0.008,0,.012c0,3.178-1.744,5.763-3.887,5.763A3.276,3.276,0,0,1,571.454,178.481Zm1.223,2.3a3.676,3.676,0,0,0,2.647,0c0.194,1.074.759,1.009,1.548,1.654l-2.8,2.209a0.088,0.088,0,0,1-.15,0l-2.8-2.21C571.918,181.792,572.482,181.855,572.677,180.781Zm8.258,7.093-3.143,1h-7.584L567,188l-0.935-1.906a2.67,2.67,0,0,1,2.59-2.738,4.351,4.351,0,0,0,1.553-.347l2.846,2.285a1.139,1.139,0,0,0,.947.52h0a1.142,1.142,0,0,0,.947-0.52l2.845-2.285a4.173,4.173,0,0,0,1.552.347,2.67,2.67,0,0,1,2.59,2.738l-1,1.78h0Z" transform="translate(-565 -167)"/>
</svg>
