<svg xmlns="http://www.w3.org/2000/svg" width="26" height="20" viewBox="0 0 26 20">
  <metadata><?xpacket begin="﻿" id="W5M0MpCehiHzreSzNTczkc9d"?>
<x:xmpmeta xmlns:x="adobe:ns:meta/" x:xmptk="Adobe XMP Core 5.6-c140 79.160451, 2017/05/06-01:08:21        ">
   <rdf:RDF xmlns:rdf="http://www.w3.org/1999/02/22-rdf-syntax-ns#">
      <rdf:Description rdf:about=""/>
   </rdf:RDF>
</x:xmpmeta>
                                                                                                    
                                                                                                    
                                                                                                    
                                                                                                    
                                                                                                    
                                                                                                    
                                                                                                    
                                                                                                    
                                                                                                    
                                                                                                    
                                                                                                    
                                                                                                    
                                                                                                    
                                                                                                    
                                                                                                    
                                                                                                    
                                                                                                    
                                                                                                    
                                                                                                    
                                                                                                    
                           
<?xpacket end="w"?></metadata>
<defs>
    <style>
      .cls-1 {
        fill: #00a0ff;
        fill-rule: evenodd;
      }
    </style>
  </defs>
  <path class="cls-1" d="M761.829,146.909h-2.645v-3.737A2.174,2.174,0,0,0,757.013,141H740.17a2.174,2.174,0,0,0-2.17,2.172v9.746a2.174,2.174,0,0,0,2.17,2.172h2.646v3.738A2.174,2.174,0,0,0,744.987,161h16.842A2.174,2.174,0,0,0,764,158.828v-9.747A2.174,2.174,0,0,0,761.829,146.909Zm-22.589-3.737a0.932,0.932,0,0,1,.93-0.931h16.843a0.932,0.932,0,0,1,.93.931v0.867h-18.7v-0.867Zm3.576,5.909v4.768H740.17a0.932,0.932,0,0,1-.93-0.931v-4.764h3.784A2.167,2.167,0,0,0,742.816,149.081Zm-3.576-2.168V145.28h18.7v1.629H744.987c-0.042,0-.084,0-0.125,0H739.24Zm22.589,12.846H744.987a0.932,0.932,0,0,1-.93-0.931v-9.747a0.931,0.931,0,0,1,.854-0.927h13.652c0.023,0,.046,0,0.068,0h3.2a0.931,0.931,0,0,1,.93.93v9.747h0A0.933,0.933,0,0,1,761.829,159.759Zm-6.553-8.8a2.984,2.984,0,0,1-3.736,0A5.2,5.2,0,1,0,755.276,150.963Zm-2.653,4.367a1.751,1.751,0,1,1,0-2.75A2.981,2.981,0,0,0,752.623,155.33Zm2.653,0.375a1.751,1.751,0,1,1,1.749-1.75A1.752,1.752,0,0,1,755.276,155.705Z" transform="translate(-738 -141)"/>
</svg>
