<?xml version="1.0" encoding="UTF-8"?>
<svg width="30px" height="30px" viewBox="0 0 30 30" version="1.1" xmlns="http://www.w3.org/2000/svg" xmlns:xlink="http://www.w3.org/1999/xlink">
    <!-- Generator: Sketch 48.2 (47327) - http://www.bohemiancoding.com/sketch -->
    <title>PDF</title>
    <desc>Created with Sketch.</desc>
    <defs></defs>
    <g id="Page-1" stroke="none" stroke-width="1" fill="none" fill-rule="evenodd">
        <g id="PDF">
            <path d="M25,6.74000666 L18.8492785,1 L5,1 L5,13.045166 L25,13.045166 L25,6.74000666 Z M5,-1.11022302e-16 L19.2434082,-7.28329918e-18 L26,6.30541992 L26,13.045166 L4,13.045166 L4,1 C4,0.44771525 4.44771525,-1.27874841e-16 5,-1.11022302e-16 Z" id="Rectangle" fill="#71CAFF" fill-rule="nonzero"></path>
            <path d="" id="Combined-Shape" fill="#979797" fill-rule="nonzero"></path>
            <path d="M25,6 L26,7 L20,7 C19.4477153,7 19,6.55228475 19,6 L19,0 L20,1 L20,6 L25,6 Z M26,7 L20,7 C19.4477153,7 19,6.55228475 19,6 L19,0 L20,1 L20,6 L25,6 L26,7 Z" id="Rectangle-2" fill="#71CAFF" fill-rule="nonzero"></path>
            <path d="M1,14 L1,25 L29,25 L29,14 L1,14 Z M2.16929998,13 L27.8632627,13 L25.1435068,10.6074016 L25.9025137,9.9563191 L29.5484204,13.1636623 C29.8204162,13.3423828 30,13.6502194 30,14 L30,25 C30,25.5522847 29.5522847,26 29,26 L1,26 C0.44771525,26 6.76353751e-17,25.5522847 0,25 L0,14 C-4.40660457e-17,13.6401734 0.190047536,13.3247348 0.475241965,13.1485849 L4.17531921,9.98423244 L4.93432617,10.6353149 L2.16929998,13 Z" id="Combined-Shape" fill="#71CAFF" fill-rule="nonzero"></path>
            <path d="M5,25.9494629 L5,29.0300293 L25,29.0300293 L25,25.9494629 L5,25.9494629 Z M26,25.1171875 L26,29.0300293 C26,29.582314 25.5522847,30.0300293 25,30.0300293 L5,30.0300293 C4.44771525,30.0300293 4,29.582314 4,29.0300293 L4,25 L26,25.1171875 Z" id="Rectangle-Copy" fill="#71CAFF" fill-rule="nonzero"></path>
            <path d="M7.83105469,16.9013672 L7.83105469,19.2011719 L9.42773438,19.2011719 C9.828127,19.1946614 10.1292308,19.0709647 10.3310547,18.8300781 C10.5231129,18.595702 10.6191406,18.3352879 10.6191406,18.0488281 C10.6191406,17.8111967 10.5800785,17.6110034 10.5019531,17.4482422 C10.4205725,17.3017571 10.3066414,17.1861983 10.1601562,17.1015625 C9.93880098,16.9615878 9.68164209,16.8948567 9.38867188,16.9013672 L7.83105469,16.9013672 Z M6.75195312,23 L6.75195312,15.8808594 L9.33007812,15.8808594 C9.61002744,15.8808594 9.88020703,15.9069008 10.140625,15.9589844 C10.401043,16.0273441 10.6647122,16.1673167 10.9316406,16.3789062 C11.1562511,16.5384123 11.338541,16.7662746 11.4785156,17.0625 C11.6250007,17.3489598 11.6982422,17.687498 11.6982422,18.078125 C11.6982422,18.6054714 11.5126972,19.0856098 11.1416016,19.5185547 C10.7607403,19.9742861 10.2041052,20.2086588 9.47167969,20.2216797 L7.83105469,20.2216797 L7.83105469,23 L6.75195312,23 Z M12.6796875,23 L12.6796875,15.8808594 L15.1699219,15.8808594 C16.1334684,15.8873698 16.8561174,16.2877564 17.3378906,17.0820312 C17.5104175,17.3489597 17.6194659,17.6289048 17.6650391,17.921875 C17.7008465,18.2148452 17.71875,18.721025 17.71875,19.4404297 C17.71875,20.2054075 17.691081,20.7392563 17.6357422,21.0419922 C17.6097004,21.1949877 17.5706383,21.3317051 17.5185547,21.4521484 C17.4632159,21.5693365 17.3964848,21.6914056 17.3183594,21.8183594 C17.110025,22.1536475 16.8203144,22.4303375 16.4492188,22.6484375 C16.0813784,22.8828137 15.6305365,23 15.0966797,23 L12.6796875,23 Z M13.7587891,16.9013672 L13.7587891,21.9794922 L15.0478516,21.9794922 C15.6533233,21.9794922 16.0927721,21.7727885 16.3662109,21.359375 C16.4866542,21.2063794 16.5631509,21.0126965 16.5957031,20.7783203 C16.6250001,20.5471994 16.6396484,20.114261 16.6396484,19.4794922 C16.6396484,18.8609995 16.6250001,18.4182956 16.5957031,18.1513672 C16.5566404,17.8844388 16.4638679,17.6679696 16.3173828,17.5019531 C16.0179021,17.0885396 15.5947293,16.8883463 15.0478516,16.9013672 L13.7587891,16.9013672 Z M18.9785156,23 L18.9785156,15.8808594 L23.5244141,15.8808594 L23.5244141,16.9013672 L20.0576172,16.9013672 L20.0576172,19.0009766 L23.0166016,19.0009766 L23.0166016,19.9580078 L20.0576172,19.9580078 L20.0576172,23 L18.9785156,23 Z" fill="#71CAFF"></path>
        </g>
    </g>
</svg>