<svg xmlns="http://www.w3.org/2000/svg" width="22" height="22" viewBox="0 0 20 20">
  <metadata><?xpacket begin="﻿" id="W5M0MpCehiHzreSzNTczkc9d"?>
<x:xmpmeta xmlns:x="adobe:ns:meta/" x:xmptk="Adobe XMP Core 5.6-c140 79.160451, 2017/05/06-01:08:21        ">
   <rdf:RDF xmlns:rdf="http://www.w3.org/1999/02/22-rdf-syntax-ns#">
      <rdf:Description rdf:about=""/>
   </rdf:RDF>
</x:xmpmeta>
                                                                                                    
                                                                                                    
                                                                                                    
                                                                                                    
                                                                                                    
                                                                                                    
                                                                                                    
                                                                                                    
                                                                                                    
                                                                                                    
                                                                                                    
                                                                                                    
                                                                                                    
                                                                                                    
                                                                                                    
                                                                                                    
                                                                                                    
                                                                                                    
                                                                                                    
                                                                                                    
                           
<?xpacket end="w"?></metadata>
<defs>
    <style>
      .cls-1 {
        fill: #00a0ff;
        fill-rule: evenodd;
      }
    </style>
  </defs>
  <path class="cls-1" d="M775.171,183.238A4.386,4.386,0,1,1,771,187.619,4.279,4.279,0,0,1,775.171,183.238Zm0,1.252a3.133,3.133,0,1,1-2.975,3.129A3.055,3.055,0,0,1,775.171,184.49Zm11.658-1.252a4.386,4.386,0,1,1-4.171,4.381A4.28,4.28,0,0,1,786.829,183.238Zm0,1.252a3.133,3.133,0,1,1-2.976,3.129A3.055,3.055,0,0,1,786.829,184.49ZM775.171,172A4.372,4.372,0,1,1,771,176.367,4.272,4.272,0,0,1,775.171,172Zm0,1.252a3.133,3.133,0,1,1-2.975,3.129A3.055,3.055,0,0,1,775.171,173.252Zm11.3-1.252a4.372,4.372,0,1,1-4.172,4.367A4.273,4.273,0,0,1,786.476,172Zm0,1.252a3.133,3.133,0,1,1-2.976,3.129A3.055,3.055,0,0,1,786.476,173.252Zm-11.906,7.5h1.19v3.75h-1.19v-3.75Zm4.759,7.5V187h3.341v1.25h-3.341Zm6.545-7.5h1.19v3.75h-1.19v-3.75Z" transform="translate(-771 -172)"/>
</svg>
