<svg xmlns="http://www.w3.org/2000/svg" width="46" height="37" viewBox="0 0 46 37">
  <metadata><?xpacket begin="﻿" id="W5M0MpCehiHzreSzNTczkc9d"?>
<x:xmpmeta xmlns:x="adobe:ns:meta/" x:xmptk="Adobe XMP Core 5.6-c138 79.159824, 2016/09/14-01:09:01        ">
   <rdf:RDF xmlns:rdf="http://www.w3.org/1999/02/22-rdf-syntax-ns#">
      <rdf:Description rdf:about=""/>
   </rdf:RDF>
</x:xmpmeta>
                                                                                                    
                                                                                                    
                                                                                                    
                                                                                                    
                                                                                                    
                                                                                                    
                                                                                                    
                                                                                                    
                                                                                                    
                                                                                                    
                                                                                                    
                                                                                                    
                                                                                                    
                                                                                                    
                                                                                                    
                                                                                                    
                                                                                                    
                                                                                                    
                                                                                                    
                                                                                                    
                           
<?xpacket end="w"?></metadata>
<defs>
    <style>
      .cls-1 {
        fill: #d2d7e2;
      }

      .cls-1, .cls-2 {
        fill-rule: evenodd;
      }

      .cls-2 {
        fill: #ff262f;
      }
    </style>
  </defs>
  <path id="Forma_1" data-name="Forma 1" class="cls-1" d="M831.855,482.2h-11.8a0.692,0.692,0,1,0,0,1.384h11.8A0.692,0.692,0,1,0,831.855,482.2Zm-21.608-.14a0.832,0.832,0,1,1-.848.832A0.84,0.84,0,0,1,810.247,482.064Zm3.268,0a0.832,0.832,0,1,1-.848.832A0.84,0.84,0,0,1,813.515,482.064Zm3.087,0a0.832,0.832,0,1,1-.849.832A0.84,0.84,0,0,1,816.6,482.064Zm26.42,0a0.832,0.832,0,1,1-.848.832A0.84,0.84,0,0,1,843.022,482.064Zm5.22,7.876h-1.064v-7.62a3.357,3.357,0,0,0-3.387-3.32H809.386A3.357,3.357,0,0,0,806,482.32V509.1a3.357,3.357,0,0,0,3.386,3.319h16.5A3.727,3.727,0,0,0,829.641,516h18.6A3.726,3.726,0,0,0,852,512.316V493.624A3.726,3.726,0,0,0,848.242,489.94Zm-33.537,21.1h-5.319a1.957,1.957,0,0,1-1.974-1.935v-5.541a5.391,5.391,0,0,1,4.173-1.981,5.284,5.284,0,0,1,5.33,5.225A5.182,5.182,0,0,1,814.705,511.038Zm5.952-1.7a9.023,9.023,0,0,1-.687,1.7h-3.207a6.52,6.52,0,0,0,1.564-4.233,6.683,6.683,0,0,0-6.742-6.608,6.845,6.845,0,0,0-4.173,1.422v-3.1a9.419,9.419,0,0,1,1.6-.606,0.7,0.7,0,0,0,.509-0.579l0.155-1.21a0.529,0.529,0,0,1,.527-0.456h2.774a0.528,0.528,0,0,1,.527.456l0.155,1.212a0.7,0.7,0,0,0,.508.58,9.49,9.49,0,0,1,2.009.818,0.719,0.719,0,0,0,.777-0.057l0.986-.75a0.539,0.539,0,0,1,.7.043l1.961,1.923a0.513,0.513,0,0,1,.044.688l-0.765.964a0.681,0.681,0,0,0-.059.762,9.085,9.085,0,0,1,.838,1.981,0.7,0.7,0,0,0,.591.5l1.235,0.153a0.524,0.524,0,0,1,.464.516v2.72a0.524,0.524,0,0,1-.465.516l-1.236.152A0.7,0.7,0,0,0,820.657,509.337Zm29.931,2.979a2.326,2.326,0,0,1-2.346,2.3h-18.6a2.326,2.326,0,0,1-2.346-2.3V509.5a0.706,0.706,0,0,0-1.412,0v1.534H821.53q0.194-.433.347-0.881l0.783-.1a1.92,1.92,0,0,0,1.7-1.89v-2.719a1.922,1.922,0,0,0-1.7-1.89h0l-0.782-.1a10.457,10.457,0,0,0-.6-1.429l0.485-.61a1.881,1.881,0,0,0-.16-2.516l-1.962-1.923a1.976,1.976,0,0,0-2.565-.158l-0.625.476a10.829,10.829,0,0,0-1.445-.588l-0.1-.768a1.933,1.933,0,0,0-1.928-1.669H810.2a1.933,1.933,0,0,0-1.927,1.667l-0.1.766c-0.258.084-.514,0.179-0.766,0.282V486.7H811.1a0.692,0.692,0,1,0,0-1.383h-3.683v-3a1.957,1.957,0,0,1,1.974-1.936h34.405a1.958,1.958,0,0,1,1.975,1.936v3H815.181a0.692,0.692,0,1,0,0,1.383h30.585v3.238H829.641a3.726,3.726,0,0,0-3.758,3.684v12a0.706,0.706,0,0,0,1.412,0v-12a2.326,2.326,0,0,1,2.346-2.3h18.6a2.326,2.326,0,0,1,2.346,2.3v18.692Z" transform="translate(-806 -479)"/>
  <path id="Forma_1_copy" data-name="Forma 1 copy" class="cls-2" d="M846.8,506.957L840.6,495.7a1.34,1.34,0,0,0-1.17-.7h-0.006a1.338,1.338,0,0,0-1.17.708l-6.076,11.253a1.377,1.377,0,0,0,.02,1.356,1.325,1.325,0,0,0,1.155.672h12.278a1.326,1.326,0,0,0,1.158-.677A1.379,1.379,0,0,0,846.8,506.957Zm-13.447.672,0,0,6.081-11.254,6.2,11.257H833.356Zm6.67-2.506a0.61,0.61,0,0,0-.465-0.213,0.732,0.732,0,0,0-.533.209,0.692,0.692,0,0,0,0,1,0.727,0.727,0,0,0,.528.213,0.61,0.61,0,0,0,.465-0.213A0.736,0.736,0,0,0,840.026,505.123ZM840,499.668a0.665,0.665,0,0,0-.448-0.153,0.814,0.814,0,0,0-.51.153,0.494,0.494,0,0,0-.2.412q0,0.555.064,1.9t0.064,1.888c0,0.271.193,0.407,0.581,0.407a0.756,0.756,0,0,0,.389-0.106,0.332,0.332,0,0,0,.182-0.3q0-.546.028-1.888t0.027-1.9A0.517,0.517,0,0,0,840,499.668Z" transform="translate(-806 -479)"/>
</svg>
