<svg xmlns="http://www.w3.org/2000/svg" width="14" height="16" viewBox="0 0 14 16">
  <metadata><?xpacket begin="﻿" id="W5M0MpCehiHzreSzNTczkc9d"?>
<x:xmpmeta xmlns:x="adobe:ns:meta/" x:xmptk="Adobe XMP Core 5.6-c138 79.159824, 2016/09/14-01:09:01        ">
   <rdf:RDF xmlns:rdf="http://www.w3.org/1999/02/22-rdf-syntax-ns#">
      <rdf:Description rdf:about=""/>
   </rdf:RDF>
</x:xmpmeta>
                                                                                                    
                                                                                                    
                                                                                                    
                                                                                                    
                                                                                                    
                                                                                                    
                                                                                                    
                                                                                                    
                                                                                                    
                                                                                                    
                                                                                                    
                                                                                                    
                                                                                                    
                                                                                                    
                                                                                                    
                                                                                                    
                                                                                                    
                                                                                                    
                                                                                                    
                                                                                                    
                           
<?xpacket end="w"?></metadata>
<defs>
    <style>
      .cls-1 {
        fill: #90a4ae;
        fill-rule: evenodd;
      }
    </style>
  </defs>
  <path id="user.svg" class="cls-1" d="M1757.42,37.4a16.122,16.122,0,0,1-6.32,1.6,17.238,17.238,0,0,1-6.52-1.6,0.576,0.576,0,0,1-.58-0.572V35.686a2.893,2.893,0,0,1,2.92-2.857h1.16a0.585,0.585,0,0,0,.59-0.572v-0.7a5.6,5.6,0,0,1-1.75-4.209c0-2.836,1.83-4.343,4.08-4.343s4.08,1.507,4.08,4.343a5.6,5.6,0,0,1-1.75,4.209v0.7a0.585,0.585,0,0,0,.59.572h1.16a2.893,2.893,0,0,1,2.92,2.857v1.143A0.576,0.576,0,0,1,1757.42,37.4Zm-3.5-10.057c0-2.205-1.31-3.2-2.92-3.2s-2.92.995-2.92,3.2,1.31,4,2.92,4S1753.92,29.548,1753.92,27.343Zm2.91,8.343a1.731,1.731,0,0,0-1.75-1.714h-1.16a1.731,1.731,0,0,1-1.75-1.714V32.246a2.975,2.975,0,0,1-2.34,0v0.011a1.731,1.731,0,0,1-1.75,1.714h-1.16a1.731,1.731,0,0,0-1.75,1.714v0.571a14.567,14.567,0,0,0,5.93,1.6,13.553,13.553,0,0,0,5.73-1.6V35.686Z" transform="translate(-1744 -23)"/>
</svg>
